<svg height="457.14286pt" viewBox="0 0 457.14286 457.14286" width="457.14286pt" xmlns="http://www.w3.org/2000/svg">
    <path fill="#1da1f2" d="m452.125 196.402344-65.757812-33.269532 23.113281-69.800781c1.089843-3.28125.234375-6.898437-2.210938-9.339843l-34.117187-34.117188c-2.4375-2.441406-6.007813-3.28125-9.332032-2.21875l-69.855468 23.03125-33.222656-65.675781c-1.5625-3.074219-4.714844-5.011719-8.160157-5.011719h-48.019531c-3.445312 0-6.597656 1.9375-8.160156 5.011719l-33.222656 65.675781-69.859376-23.03125c-3.320312-1.074219-6.890624-.226562-9.328124 2.21875l-34.117188 34.117188c-2.445312 2.441406-3.304688 6.058593-2.214844 9.339843l23.117188 69.800781-65.757813 33.269532c-3.082031 1.554687-5.019531 4.710937-5.019531 8.15625v48.027344c0 3.445312 1.9375 6.601562 5.019531 8.15625l65.625 33.199218-22.992187 69.890625c-1.070313 3.273438-.214844 6.882813 2.222656 9.320313l34.117188 34.117187c2.445312 2.441407 6.035156 3.304688 9.328124 2.21875l69.859376-23.027343 33.222656 65.667968c1.5625 3.078125 4.714844 5.015625 8.160156 5.015625h48.019531c3.445313 0 6.597657-1.9375 8.160157-5.015625l33.222656-65.667968 69.855468 23.027343c3.304688 1.074219 6.894532.21875 9.332032-2.21875l34.117187-34.117187c2.4375-2.4375 3.292969-6.046875 2.222657-9.320313l-22.992188-69.890625 65.625-33.199218c3.082031-1.554688 5.019531-4.710938 5.019531-8.15625v-48.027344c0-3.445313-1.9375-6.601563-5.019531-8.15625zm-13.269531 50.5625-65.035157 32.90625c-2.050781 1.035156-3.640624 2.8125-4.445312 4.972656l-.695312 1.746094c-.339844.816406-.671876 1.632812-.957032 2.402344-.722656 1.9375-.757812 4.066406-.117187 6.03125l22.75 69.175781-26.148438 26.15625-69.011719-22.742188c-1.882812-.613281-3.882812-.613281-5.75.007813-.953124.316406-1.863281.683594-2.765624 1.054687-.511719.207031-1.019532.425781-1.5625.605469-2.277344.761719-4.160157 2.398438-5.25 4.539062l-32.902344 65.035157h-36.785156l-32.902344-65.035157c-1.089844-2.140624-2.972656-3.777343-5.25-4.539062-.546875-.179688-1.054688-.398438-1.5625-.605469-.902344-.371093-1.8125-.738281-2.769532-1.054687-1.863281-.625-3.863281-.625-5.75-.007813l-69.007812 22.742188-26.152344-26.15625 22.75-69.175781c.644532-1.964844.609375-4.09375-.117187-6.03125-.285157-.769532-.613281-1.585938-.953125-2.402344l-.695313-1.746094c-.804687-2.160156-2.394531-3.9375-4.449219-4.972656l-65.035156-32.90625v-36.785156l65.035156-32.902344c2.0625-1.039063 3.652344-2.816406 4.449219-4.984375.382813-1.035157.917969-2.199219 1.4375-3.238281 1.070313-2.160157 1.25-4.65625.488281-6.953126l-22.902343-69.167968 26.144531-26.148438 69.007812 22.75c1.894532.625 3.902344.621094 5.777344-.011718.929688-.316407 1.820313-.675782 2.707032-1.035157.507812-.214843 1.027343-.433593 1.570312-.617187 2.285156-.757813 4.1875-2.394532 5.277344-4.546875l32.902344-65.039063h36.785156l32.902344 65.039063c1.089843 2.152343 2.988281 3.789062 5.277343 4.546875.542969.183594 1.0625.402344 1.570313.617187.882812.359375 1.777344.71875 2.703125 1.035157 1.875.628906 3.886719.632812 5.777343.011718l69.011719-22.75 26.140625 26.148438-22.902344 69.167968c-.757812 2.296876-.578124 4.792969.492188 6.953126.519531 1.039062 1.054688 2.203124 1.4375 3.238281.792969 2.167969 2.382812 3.945312 4.445312 4.984375l65.035157 32.902344zm0 0"/>
    <path fill="#1da1f2" d="m228.582031 108.160156c-66.351562 0-120.324219 54.019532-120.324219 120.410156 0 66.34375 53.972657 120.324219 120.324219 120.324219 66.390625 0 120.410157-53.980469 120.410157-120.324219 0-66.390624-54.019532-120.410156-120.410157-120.410156zm0 222.445313c-56.261719 0-102.039062-45.769531-102.039062-102.035157 0-56.3125 45.777343-102.125 102.039062-102.125 56.3125 0 102.125 45.8125 102.125 102.125 0 56.265626-45.8125 102.035157-102.125 102.035157zm0 0"/>
    <path fill="#1da1f2" d="m185.988281 198.425781c6.144531 0 11.292969 1.3125 14.910157 3.074219l2.304687-7.789062c-2.519531-1.320313-8.332031-3.292969-17.546875-3.292969-22.917969 0-38.597656 15.6875-38.597656 38.820312 0 24.234375 15.679687 37.394531 36.519531 37.394531 8.992187 0 16.007813-1.757812 19.515625-3.507812l-1.972656-7.574219c-3.839844 1.867188-9.757813 3.074219-15.570313 3.074219-17.980469 0-28.402343-11.625-28.402343-29.714844 0-19.410156 11.519531-30.484375 28.839843-30.484375zm0 0"/>
    <path fill="#1da1f2" d="m237.230469 223.648438c-10.199219-3.953126-14.699219-7.347657-14.699219-14.257813 0-5.042969 3.839844-11.070313 13.929688-11.070313 6.6875 0 11.625 2.1875 14.035156 3.507813l2.636718-7.785156c-3.289062-1.867188-8.777343-3.625-16.339843-3.625-14.367188 0-23.902344 8.554687-23.902344 20.070312 0 10.421875 7.453125 16.671875 19.515625 20.949219 9.976562 3.828125 13.929688 7.785156 13.929688 14.6875 0 7.453125-5.703126 12.613281-15.464844 12.613281-6.578125 0-12.828125-2.195312-17.105469-4.828125l-2.410156 8.007813c3.945312 2.625 11.730469 4.714843 18.855469 4.714843 17.4375 0 25.882812-9.875 25.882812-21.277343 0-10.855469-6.363281-16.882813-18.863281-21.707031zm0 0"/>
    <path fill="#1da1f2" d="m290.550781 198.320312c6.6875 0 11.625 2.1875 14.035157 3.507813l2.632812-7.785156c-3.285156-1.867188-8.773438-3.625-16.335938-3.625-14.367187 0-23.902343 8.554687-23.902343 20.070312 0 10.421875 7.453125 16.671875 19.515625 20.949219 9.972656 3.828125 13.929687 7.785156 13.929687 14.6875 0 7.453125-5.707031 12.613281-15.464843 12.613281-6.578126 0-12.828126-2.195312-17.105469-4.828125l-2.410157 8.007813c3.945313 2.625 11.730469 4.714843 18.855469 4.714843 17.4375 0 25.882813-9.875 25.882813-21.277343 0-10.855469-6.363282-16.882813-18.863282-21.707031-10.199218-3.953126-14.699218-7.347657-14.699218-14.257813 0-5.042969 3.839844-11.070313 13.929687-11.070313zm0 0"/>
</svg>