<?xml version="1.0" encoding="iso-8859-1"?><!-- Generator:Adobe Illustrator 19.0.0,SVG Export Plug-In . SVG Version:6 Build 0) --><svg version="1.1" id="Capa_1" xmlns="http://www.w3.org/2000/svg" xmlns:xlink="http://www.w3.org/1999/xlink" x="0px" y="0px" viewBox="0 0 496 496" style="enable-background:new 0 0 496 496;" xml:space="preserve"><g><g><path fill="#1da1f2" d="M456,112h-8V0H48v112h-8c-22.056,0-40,17.944-40,40v256c0,22.056,17.944,40,40,40h112v32h-24v16h240v-16h-24v-32h112
			c22.056,0,40-17.944,40-40V152C496,129.944,478.056,112,456,112z M64,16h368v48H64V16z M64,80h368v272h-48v-22.208l-30.664-7.848
			c-1.16-3.168-2.488-6.336-3.976-9.48l16.168-27.272L322.8,242.464l-27.272,16.168c-3.152-1.488-6.32-2.816-9.48-3.968L278.208,224
			h-60.424l-7.84,30.664c-3.16,1.16-6.328,2.488-9.48,3.968l-27.272-16.168l-42.728,42.728l16.168,27.272
			c-1.488,3.144-2.816,6.312-3.976,9.48L112,329.792V352H64V80z M309.96,352H186.104c7.136-27.56,32.136-48,61.896-48
			c18.704,0,36.432,8.16,48.624,22.376l12.152-10.408C293.536,298.192,271.384,288,248,288c-38.632,0-70.952,27.528-78.384,64H128
			v-9.792l27.128-6.936l1.336-4.232c1.6-5.056,3.736-10.168,6.36-15.224l2.048-3.944l-14.312-24.144l25.16-25.168l24.144,14.32
			l3.944-2.048c5.056-2.632,10.184-4.776,15.232-6.376l4.232-1.344L230.208,240h35.576l6.936,27.12l4.232,1.344
			c5.048,1.6,10.168,3.744,15.232,6.376l3.944,2.048l24.144-14.32l25.16,25.168L331.12,311.88l2.048,3.944
			c2.624,5.056,4.768,10.168,6.36,15.224l1.336,4.232L368,342.208V352h-41.744c-1.488-7.296-3.864-14.4-7.304-20.984l-14.176,7.408
			C307.048,342.784,308.752,347.328,309.96,352z M328,480H168v-32h160V480z M480,408c0,13.232-10.768,24-24,24H40
			c-13.232,0-24-10.768-24-24v-8h464V408z M480,384H16V152c0-13.232,10.768-24,24-24h8v240h120h16h128h16h120V128h8
			c13.232,0,24,10.768,24,24V384z"/></g></g><g><g><polygon fill="#1da1f2" points="292.44,113.344 283.56,126.656 321.576,152 283.56,177.344 292.44,190.656 350.424,152 		"/></g></g><g><g><polygon fill="#1da1f2" points="212.44,126.656 203.56,113.344 145.576,152 203.56,190.656 212.44,177.344 174.424,152 		"/></g></g><g><g><rect fill="#1da1f2" x="197.402" y="144.026" transform="matrix(0.3164 -0.9486 0.9486 0.3164 25.3134 339.1799)" width="101.189" height="16"/></g></g><g><g><rect fill="#1da1f2" x="144" y="32" width="16" height="16"/></g></g><g><g><rect fill="#1da1f2" x="112" y="32" width="16" height="16"/></g></g><g><g><rect fill="#1da1f2" x="80" y="32" width="16" height="16"/></g></g><g></g><g></g><g></g><g></g><g></g><g></g><g></g><g></g><g></g><g></g><g></g><g></g><g></g><g></g><g></g></svg>