<?xml version="1.0" encoding="iso-8859-1"?>
<!-- Generator: Adobe Illustrator 19.0.0, SVG Export Plug-In . SVG Version: 6.00 Build 0)  -->
<svg version="1.1" id="Layer_1" xmlns="http://www.w3.org/2000/svg" xmlns:xlink="http://www.w3.org/1999/xlink" x="0px" y="0px"
	 viewBox="0 0 512.001 512.001" style="enable-background:new 0 0 512.001 512.001;" xml:space="preserve">
<g>
	<g>
		<path d="M342.4,0H169.6c-29.6,0-53.6,24-53.6,53.6v405.2c0,29.2,24,53.2,53.6,53.2h173.2c29.2,0,53.2-24,53.2-53.2V53.6
			C396.001,24,372,0,342.4,0z M388,458.4c0,24.8-20.4,45.2-45.2,45.2H169.6c-25.2,0-45.6-20.4-45.6-45.2V53.6
			c0-25.2,20.4-45.6,45.6-45.6h173.2c24.8,0,45.2,20.4,45.2,45.6V458.4z"/>
	</g>
</g>
<g>
	<g>
		<path d="M372.001,68.001H356V68c-2.4,0-4,1.6-4,4s1.6,4,4,4h12v356H144V76h180c2.4,0,4-1.6,4-4s-1.6-4-4-4h-184c-2.4,0-4,1.6-4,4
			v364c0,2.4,1.6,4,4,4h232c2.4,0,4-1.6,4-4V72C376.001,69.6,374.4,68.001,372.001,68.001z"/>
	</g>
</g>
<g>
	<g>
		<path d="M284.001,36.001h-56c-2.4,0-4,1.6-4,4s1.6,4,4,4h56c2.4,0,4-1.6,4-4S286.4,36.001,284.001,36.001z"/>
	</g>
</g>
<g>
	<g>
		<path d="M211.2,37.6c-1.6-1.6-4-1.6-5.6,0c-0.8,0.8-1.2,2-1.2,2.8c0,1.2,0.4,2,1.2,2.8c0.4,0.8,1.6,1.2,2.8,1.2s2-0.4,2.8-1.2
			c0.8-0.8,1.2-1.6,1.2-2.8C212.4,39.2,212,38.4,211.2,37.6z"/>
	</g>
</g>
<g>
	<g>
		<path d="M278,466c-0.399-1.6-2.799-2.8-4.8-2.4s-3.6,2.8-2.8,4.8c0.8,4,0.4,8.4-2,12c-2.4,3.6-5.6,6-10,7.2c-4,0.8-8.4,0.4-12-2
			s-6-5.6-7.2-10c-2-8.4,3.2-17.2,11.6-19.2c2.4-0.4,4.8-0.4,7.2,0c2,0.4,4.4-0.8,4.8-3.2c0.4-2-0.8-4.4-3.2-4.8
			c-3.6-0.8-7.2-0.8-10.4,0c-12.8,3.2-20.8,16-17.6,28.8c1.6,6.4,5.2,11.6,10.8,14.8c4,2.4,8,3.6,12.4,3.6c2,0,3.6-0.4,5.6-0.8
			c6.4-1.6,11.6-5.2,14.8-10.8S279.599,472,278,466z"/>
	</g>
</g>
<g>
	<g>
		<path d="M293.2,231.998c-1.2-1.598-3.599-2.398-5.599-1.198c-2,1.2-2.4,3.6-1.2,5.6c10.8,16.8,5.6,39.2-11.2,49.6
			c-8,5.2-17.6,6.8-27.2,4.8c-9.2-2-17.2-7.6-22.4-16c-5.2-8-6.8-17.6-4.8-27.2c2-9.6,7.6-17.2,16-22.4c9.6-6.4,22-7.2,32.8-2.8
			c0.8,0.4,1.6,0.8,2.4,1.2c2,0.8,4.4,0,5.2-2c0.8-2,0-4.4-2-5.2c-0.8-0.4-2-0.8-2.8-1.2c-13.2-5.2-28-4-40,3.6
			c-10,6.4-16.8,16-19.2,27.6c-2.4,11.6-0.4,23.2,5.6,33.2c6.4,10,16,16.8,27.6,19.2c3.2,0.8,6.4,1.2,9.6,1.2
			c8.4,0,16.4-2.4,23.6-6.8C300,279.998,306,252.797,293.2,231.998z"/>
	</g>
</g>
<g>
	<g>
		<path d="M336,242.401l-7.2-0.4c-2-8.4-5.6-17.2-10.4-24.8l4-6.001c4-4.8,3.6-12.4-0.8-16.8l-3.6-3.6c-4.4-4.4-12-4.4-16.8-0.8
			l-5.2,4.8c-7.6-4.8-16-8.4-24.8-10l-0.4-6c-0.4-6-5.6-10.4-12.4-10.4h-4.8c-6.8,0-12,4.4-12.4,10.4l-0.4,6.4
			c-8.8,2-17.2,5.2-24.4,10l-5.2-4.4c-4.8-4-12.4-3.6-16.8,0.8l-3.6,3.6c-4.4,4.4-4.8,12-0.8,16.8l4.4,5.2
			c-4.8,7.6-8.4,16-10.4,24.8l-6,0.4c-6,0.4-10.4,5.6-10.4,12.4v4.8c0,6.8,4.4,12,10.4,12.4l6,0.4c2,9.2,5.2,17.6,10,24.8l-4.4,4.8
			c-4,4.8-3.6,12.4,0.8,16.8l3.6,3.6c4.4,4.4,12,4.8,16.8,0.8l4.8-4c7.6,5.2,16,8.4,24.8,10.4l0.4,7.2c0.4,6,5.6,12,12.4,12h4.8
			c6.8,0,12-6.4,12.4-12l0.4-6.8c8.8-2,17.2-5.6,25.2-10.8l4.8,4c2,2,4.8,2.8,8,2.8c3.201,0,6.4-1.2,8.8-3.6l3.6-3.6
			c4.4-4.4,4.8-12,0.8-16.8l-4-4.8c4.8-7.6,8.4-16,10.4-24.8l7.6-0.4c6-0.4,12.4-5.6,12.4-12.4v-4.8
			C348.401,248.001,342.001,242.801,336,242.401z M339.599,258.799c0,2-2.4,4-4.8,4.4l-10,0.8c-2,0-3.2,1.6-3.6,3.2
			c-1.6,9.6-5.6,19.2-11.2,27.2c-1.2,1.6-0.8,3.6,0.4,4.8l6,7.2c1.2,1.6,1.2,4.4-0.4,6l-3.6,3.6c-1.6,1.6-4.4,1.6-6,0.4l-7.2-6
			c-1.2-1.2-3.6-1.2-4.8,0c-8.4,6-18,10-27.2,11.6c-2,0.4-3.2,2-3.2,3.6l-0.8,9.6c0,2.4-2.4,4.8-4.4,4.8H254c-2,0-4-2.4-4.4-4.8
			l-0.8-10.4c0-2-1.6-3.2-3.2-3.6c-10-1.6-19.2-5.6-27.2-11.2c-0.8-0.4-1.6-0.8-2.4-0.8c-0.8,0-2,0.4-2.4,0.8l-7.2,6
			c-1.6,1.2-4.4,1.2-6-0.4l-3.6-3.6c-1.6-1.6-1.6-4.4-0.4-6l6.4-7.2c1.2-1.2,1.2-3.6,0.4-4.8c-5.6-8-9.2-17.2-10.8-27.2
			c-0.4-2-1.6-3.2-3.6-3.2l-9.2-0.8c-2,0-3.2-2.4-3.2-4.4v-4.8c0-2,0.8-4,3.2-4.4l8.8-0.8c2,0,3.2-1.6,3.6-3.2
			c1.6-9.6,5.6-18.8,11.2-26.8c1.2-1.6,0.8-3.6,0-4.8l-6.4-7.6c-1.2-1.6-1.2-4.4,0.4-6l3.6-3.6c1.6-1.6,4.4-1.6,6-0.4l7.6,6.4
			c1.2,1.2,3.6,1.2,4.8,0.4c8-5.6,16.8-9.2,26.8-10.8c2-0.4,3.2-1.6,3.2-3.6l0.8-9.6c0-2,2.4-3.2,4.4-3.2h4.8c2,0,4,1.2,4.4,3.2
			l0.8,9.2c0,2,1.6,3.2,3.2,3.6c9.6,1.6,18.8,5.2,26.8,11.2c1.6,1.2,3.6,0.8,4.8-0.4l7.6-6.4c1.6-1.2,4.4-1.2,6,0.4l3.2,3.6
			c1.6,1.6,1.6,4.4,0.4,6l-6.4,7.6c-1.2,1.6-1.2,3.6,0,4.8c5.604,8.4,9.603,17.6,11.203,27.2c0.4,2,2,3.2,3.6,3.2l10,0.8
			c2.4,0,4.8,2.4,4.8,4.4V258.799z"/>
	</g>
</g>
<g>
</g>
<g>
</g>
<g>
</g>
<g>
</g>
<g>
</g>
<g>
</g>
<g>
</g>
<g>
</g>
<g>
</g>
<g>
</g>
<g>
</g>
<g>
</g>
<g>
</g>
<g>
</g>
<g>
</g>
</svg>
