<?xml version="1.0" encoding="iso-8859-1"?>
<!-- Generator: Adobe Illustrator 19.0.0, SVG Export Plug-In . SVG Version: 6.00 Build 0)  -->
<svg version="1.1" id="Capa_1" xmlns="http://www.w3.org/2000/svg" xmlns:xlink="http://www.w3.org/1999/xlink" x="0px" y="0px"
	 viewBox="0 0 496 496" style="enable-background:new 0 0 496 496;" xml:space="preserve">
<g>
	<g>
		<path d="M456,176h-64v-40c0-13.232-10.768-24-24-24h-81.376c-6.408,0-12.44,2.496-16.968,7.032L244.688,144H192V40
			c0-22.056-17.944-40-40-40H40C17.944,0,0,17.944,0,40v240c0,22.056,17.944,40,40,40h64v8c0,13.232,10.768,24,24,24h176v104
			c0,22.056,17.944,40,40,40h112c22.056,0,40-17.944,40-40V216C496,193.944,478.056,176,456,176z M392,328v-56h56v112h-96v-32h16
			C381.232,352,392,341.232,392,328z M251.312,160l29.656-29.656c1.496-1.496,3.552-2.344,5.656-2.344H368c4.416,0,8,3.584,8,8v40
			H120v-8c0-4.416,3.584-8,8-8H251.312z M16,40c0-13.232,10.768-24,24-24h112c13.232,0,24,10.768,24,24v8H16V40z M104,272H72v16h32
			v16H40c-13.232,0-24-10.768-24-24v-24h88V272z M104,240H16V64h160v80h-16V80H32v144h72V240z M104,168v40H48V96h96v48h-16
			C114.768,144,104,154.768,104,168z M128,336c-4.416,0-8-3.584-8-8V192h256v136c0,4.416-3.584,8-8,8H128z M480,456
			c0,13.232-10.768,24-24,24H344c-13.232,0-24-10.768-24-24v-24h160V456z M480,416H320v-64h16v48h128V256h-72v-16h88V416z M480,224
			h-88v-32h64c13.232,0,24,10.768,24,24V224z"/>
	</g>
</g>
<g>
	<g>
		<rect x="376" y="448" width="48" height="16"/>
	</g>
</g>
<g>
	<g>
		<rect x="296" y="144" width="64" height="16"/>
	</g>
</g>
<g>
	<g>
		<path d="M248,272c-13.232,0-24,10.768-24,24s10.768,24,24,24s24-10.768,24-24S261.232,272,248,272z M248,304c-4.416,0-8-3.584-8-8
			c0-4.416,3.584-8,8-8s8,3.584,8,8C256,300.416,252.416,304,248,304z"/>
	</g>
</g>
<g>
	<g>
		<path d="M248,240c-30.872,0-56,25.128-56,56h16c0-22.056,17.944-40,40-40c22.056,0,40,17.944,40,40h16
			C304,265.128,278.872,240,248,240z"/>
	</g>
</g>
<g>
	<g>
		<path d="M248,208c-48.52,0-88,39.48-88,88h16c0-39.704,32.296-72,72-72s72,32.296,72,72h16C336,247.48,296.52,208,248,208z"/>
	</g>
</g>
<g>
</g>
<g>
</g>
<g>
</g>
<g>
</g>
<g>
</g>
<g>
</g>
<g>
</g>
<g>
</g>
<g>
</g>
<g>
</g>
<g>
</g>
<g>
</g>
<g>
</g>
<g>
</g>
<g>
</g>
</svg>
