<?xml version="1.0" encoding="iso-8859-1"?>
<!-- Generator: Adobe Illustrator 19.0.0, SVG Export Plug-In . SVG Version: 6.00 Build 0)  -->
<svg version="1.1" id="Capa_1" xmlns="http://www.w3.org/2000/svg" xmlns:xlink="http://www.w3.org/1999/xlink" x="0px" y="0px"
	 viewBox="0 0 480 480" style="enable-background:new 0 0 480 480;" xml:space="preserve">
<g>
	<g>
		<path d="M440,0H40C17.944,0,0,17.944,0,40v416c0,13.232,10.768,24,24,24h432c13.232,0,24-10.768,24-24V40
			C480,17.944,462.056,0,440,0z M128,456c0,4.416-3.584,8-8,8H24c-4.416,0-8-3.584-8-8v-8h112V456z M128,432H16V296h112V432z
			 M128,280H16v-8c0-4.416,3.584-8,8-8h96c4.416,0,8,3.584,8,8V280z M142.632,464.008V464c0.24-0.688,0.376-1.424,0.56-2.136
			c0.112-0.456,0.264-0.888,0.352-1.352c0.28-1.464,0.456-2.968,0.456-4.512v-8h104v8c0,1.544,0.176,3.048,0.456,4.512
			c0.088,0.464,0.24,0.896,0.352,1.352c0.184,0.72,0.312,1.456,0.56,2.144H142.632z M146.8,432H144v-56h27.688L146.8,432z
			 M189.192,376H248v56h-83.688L189.192,376z M248,328v32H144v-40h105.472C248.576,322.512,248,325.184,248,328z M280,464h-8
			c-4.416,0-8-3.584-8-8v-16V328c0-4.416,3.584-8,8-8h8V464z M432,464H296V320h136V464z M464,456c0,4.416-3.584,8-8,8h-8V320h8
			c2.448,0,4.8,1.168,6.376,3.208c1.08,1.368,1.624,2.976,1.624,4.792V456z M464,304H144v-16v-16c0-13.232-10.768-24-24-24H24
			c-2.816,0-5.488,0.576-8,1.472V40c0-13.232,10.768-24,24-24h400c13.232,0,24,10.768,24,24V304z"/>
	</g>
</g>
<g>
	<g>
		<path d="M304,104V88h-16.72c-1.232-7.272-4.08-13.992-8.2-19.768L290.912,56.4L279.6,45.088L267.768,56.92
			c-5.776-4.12-12.496-6.968-19.768-8.2V32h-16v16.72c-7.272,1.232-13.992,4.08-19.768,8.2L200.4,45.088L189.088,56.4l11.832,11.832
			c-4.12,5.776-6.968,12.496-8.2,19.768H176v16h16.72c1.232,7.272,4.08,13.992,8.2,19.768L189.088,135.6l11.312,11.312
			l11.832-11.832c5.776,4.12,12.496,6.968,19.768,8.2V160h16v-16.72c7.272-1.232,13.992-4.08,19.768-8.2l11.832,11.832
			l11.312-11.312l-11.832-11.832c4.12-5.776,6.968-12.496,8.2-19.768H304z M240,128c-17.648,0-32-14.352-32-32s14.352-32,32-32
			s32,14.352,32,32S257.648,128,240,128z"/>
	</g>
</g>
<g>
	<g>
		<rect x="232" y="88" width="16" height="16"/>
	</g>
</g>
<g>
	<g>
		<path d="M264,232v-16h-16.72c-1.232-7.272-4.08-13.992-8.2-19.768l11.832-11.832L239.6,173.088l-11.832,11.832
			c-5.776-4.12-12.496-6.968-19.768-8.2V160h-16v16.72c-7.272,1.232-13.992,4.08-19.768,8.2L160.4,173.088L149.088,184.4
			l11.832,11.832c-4.12,5.776-6.968,12.496-8.2,19.768H136v16h16.72c1.232,7.272,4.08,13.992,8.2,19.768L149.088,263.6
			l11.312,11.312l11.832-11.832c5.776,4.12,12.496,6.968,19.768,8.2V288h16v-16.72c7.272-1.232,13.992-4.08,19.768-8.2
			l11.832,11.832l11.312-11.312l-11.832-11.832c4.12-5.776,6.968-12.496,8.2-19.768H264z M200,256c-17.648,0-32-14.352-32-32
			s14.352-32,32-32s32,14.352,32,32S217.648,256,200,256z"/>
	</g>
</g>
<g>
	<g>
		<rect x="192" y="216" width="16" height="16"/>
	</g>
</g>
<g>
	<g>
		<path d="M400,208v-16h-16.72c-1.232-7.272-4.08-13.992-8.2-19.768l11.832-11.832L375.6,149.088l-11.832,11.832
			c-5.776-4.12-12.496-6.968-19.768-8.2V136h-16v16.72c-7.272,1.232-13.992,4.08-19.768,8.2L296.4,149.088L285.088,160.4
			l11.832,11.832c-4.12,5.776-6.968,12.496-8.2,19.768H272v16h16.72c1.232,7.272,4.08,13.992,8.2,19.768L285.088,239.6
			l11.312,11.312l11.832-11.832c5.776,4.12,12.496,6.968,19.768,8.2V264h16v-16.72c7.272-1.232,13.992-4.08,19.768-8.2
			l11.832,11.832l11.312-11.312l-11.832-11.832c4.12-5.776,6.968-12.496,8.2-19.768H400z M336,232c-17.648,0-32-14.352-32-32
			s14.352-32,32-32s32,14.352,32,32S353.648,232,336,232z"/>
	</g>
</g>
<g>
	<g>
		<rect x="328" y="192" width="16" height="16"/>
	</g>
</g>
<g>
</g>
<g>
</g>
<g>
</g>
<g>
</g>
<g>
</g>
<g>
</g>
<g>
</g>
<g>
</g>
<g>
</g>
<g>
</g>
<g>
</g>
<g>
</g>
<g>
</g>
<g>
</g>
<g>
</g>
</svg>
