<?xml version="1.0" encoding="iso-8859-1"?>
<!-- Generator: Adobe Illustrator 19.0.0, SVG Export Plug-In . SVG Version: 6.00 Build 0)  -->
<svg version="1.1" id="Capa_1" xmlns="http://www.w3.org/2000/svg" xmlns:xlink="http://www.w3.org/1999/xlink" x="0px" y="0px"
	 viewBox="0 0 508 508" style="enable-background:new 0 0 508 508;" xml:space="preserve">
<g>
	<g>
		<path d="M442.5,245.8V114.7h-377V213H0v180.3h131.1v-49.2h49.2v32.8h-24.6v16.4h24.6h147.5h24.6v-16.4h-24.6v-32.8h81.9v49.2H508
			V245.8H442.5z M114.7,376.9H16.4V229.4h98.3V376.9z M196.6,376.9v-32.8h114.7v32.8H196.6z M426,245.8h-16.4v81.9h-81.9H180.3
			h-49.2V213H81.9v-81.9H426V245.8z M491.6,376.9h-65.5v-16.4h65.5V376.9z M491.6,344.2h-65.5V295h65.5V344.2z M491.6,278.6h-65.5
			v-16.4h65.5V278.6z"/>
	</g>
</g>
<g>
	<g>
		<rect x="57.4" y="335.9" width="16.4" height="16.4"/>
	</g>
</g>
<g>
	<g>
		<path d="M336.1,252.3v-45.6l-15.1-3.8c-0.4-0.7-0.7-1.3-1-1.9l8-13.4l-32.2-32.2l-13.4,8c-0.6-0.3-1.2-0.5-1.9-0.8l-3.8-15.1
			h-45.6l-3.8,15.1c-0.6,0.3-1.3,0.5-1.9,0.8l-13.4-8l-32,32.2l8,13.4c-0.3,0.6-0.5,1.3-0.8,1.9l-15.1,3.8v45.6l15.1,3.8
			c0.3,0.6,0.5,1.3,0.8,1.9l-8,13.4l32.2,32.2l13.4-8c0.6,0.3,1.3,0.5,1.9,0.8l3.8,15.1h45.6l3.8-15.1c0.6-0.3,1.3-0.5,1.9-0.8
			l13.4,8l32.2-32.2l-8-13.4c0.3-0.6,0.5-1.3,0.8-1.9L336.1,252.3z M319.5,239.4l-11.3,2.8l-1.4,4.3c-0.9,2.7-2,5.4-3.4,8l-2.1,4
			l6,10.1l-14.1,14.1l-10.1-6l-4,2.1c-2.7,1.4-5.4,2.5-8,3.4l-4.3,1.4L264,295h-20l-2.8-11.3l-4.3-1.4c-2.7-0.9-5.4-2-8-3.4l-4-2.1
			l-10.1,6l-14.1-14.1l6-10.1l-2.1-4c-1.4-2.7-2.5-5.4-3.4-8l-1.4-4.3l-11.3-2.8v-20l11.3-2.8l1.4-4.3c0.9-2.7,2-5.4,3.4-8l2.1-4
			l-6-10.1l14.1-14.1l10.1,6l4-2.1c2.7-1.4,5.4-2.5,8-3.4l4.3-1.4L244,164h20l2.8,11.3l4.3,1.4c2.7,0.9,5.4,2,8,3.4l4,2.1l10.1-6
			l14.1,14.1l-6,10.1l2.1,4c1.4,2.7,2.5,5.4,3.4,8l1.4,4.3l11.3,2.8V239.4z"/>
	</g>
</g>
<g>
	<g>
		<path d="M254,188.5c-22.6,0-41,18.4-41,41c0,22.6,18.4,41,41,41c22.6,0,41-18.4,41-41C295,206.9,276.6,188.5,254,188.5z M254,254
			c-13.6,0-24.6-11-24.6-24.6c0-13.6,11-24.6,24.6-24.6c13.6,0,24.6,11,24.6,24.6C278.6,243,267.6,254,254,254z"/>
	</g>
</g>
<g>
</g>
<g>
</g>
<g>
</g>
<g>
</g>
<g>
</g>
<g>
</g>
<g>
</g>
<g>
</g>
<g>
</g>
<g>
</g>
<g>
</g>
<g>
</g>
<g>
</g>
<g>
</g>
<g>
</g>
</svg>
