<svg height="496pt" viewBox="0 0 496 496" width="496pt" xmlns="http://www.w3.org/2000/svg"><path d="m472 0h-112c-13.230469 0-24 10.769531-24 24v53.40625c-13.542969-7.007812-27.800781-12.382812-42.609375-15.972656l-7.085937-29.433594h-76.601563l-7.085937 29.433594c-19.203126 4.65625-37.464844 12.230468-54.410157 22.566406l-25.847656-15.816406-54.167969 54.160156 15.824219 25.855469c-10.335937 16.945312-17.910156 35.199219-22.566406 54.410156l-29.449219 7.085937v63.113282c-18.230469 3.71875-32 19.878906-32 39.191406v112c0 22.054688 17.945312 40 40 40h40v16h-32v16h160v-16h-32v-16h110.304688l7.085937-29.433594c19.203125-4.65625 37.464844-12.230468 54.410156-22.566406l25.847657 15.816406 54.167968-54.160156-15.816406-25.855469c10.335938-16.945312 17.910156-35.199219 22.566406-54.410156l29.433594-7.085937v-30.304688h8c13.230469 0 24-10.769531 24-24v-208c0-13.230469-10.769531-24-24-24zm-112 16h112c4.40625 0 8 3.585938 8 8v24h-128v-24c0-4.414062 3.59375-8 8-8zm-144 256h-52.632812c-2.199219-7.777344-3.367188-15.816406-3.367188-24 0-48.519531 39.480469-88 88-88s88 39.480469 88 88c0 45.824219-35.214844 83.535156-80 87.59375v-23.59375c0-22.054688-17.945312-40-40-40zm-101.679688 0c-1.410156-7.894531-2.320312-15.921875-2.320312-24 0-74.992188 61.007812-136 136-136 32.359375 0 63.433594 11.558594 88 32.457031v48.367188c-18.414062-29.273438-50.929688-48.824219-88-48.824219-57.34375 0-104 46.65625-104 104 0 8.144531 1.007812 16.167969 2.855469 24zm141.679688 79.59375c51.488281-3.945312 92.496094-45.480469 95.671875-97.167969 2.609375.964844 5.390625 1.574219 8.328125 1.574219h23.59375c-4.019531 68.601562-58.992188 123.574219-127.59375 127.59375zm96-287.59375h128v112h-128zm-277.105469 151.832031 1.058594-4.921875c4.453125-20.757812 12.589844-40.375 24.183594-58.300781l2.726562-4.226563-14.457031-23.621093 36.347656-36.347657 23.621094 14.464844 4.226562-2.734375c17.925782-11.59375 37.542969-19.730469 58.300782-24.183593l4.921875-1.058594 6.480469-26.902344h51.398437l6.480469 26.886719 4.921875 1.058593c17.917969 3.847657 34.992187 10.582032 50.902343 19.808594v28.4375c-25.609374-18.214844-56.246093-28.191406-88.007812-28.191406-83.816406 0-152 68.183594-152 152 0 8.054688.664062 16.089844 1.921875 24h-49.921875v-49.695312zm-34.894531 72.167969h176c13.230469 0 24 10.769531 24 24v104h-224v-104c0-13.230469 10.769531-24 24-24zm120 192h-64v-16h64zm-120-32c-10.414062 0-19.214844-6.710938-22.527344-16h221.046875c-3.3125 9.289062-12.113281 16-22.527343 16zm408-174.304688-26.894531 6.480469-1.058594 4.921875c-4.453125 20.757813-12.589844 40.375-24.183594 58.300782l-2.726562 4.226562 14.457031 23.621094-36.347656 36.347656-23.621094-14.464844-4.226562 2.734375c-17.925782 11.59375-37.542969 19.730469-58.300782 24.183594l-4.921875 1.058594-6.480469 26.894531h-25.902343c5.078125-6.703125 8.207031-14.960938 8.207031-24v-24.40625c77.414062-4.058594 139.535156-66.179688 143.59375-143.59375h48.40625zm24-33.695312h-112c-4.40625 0-8-3.585938-8-8v-40h128v40c0 4.414062-3.59375 8-8 8zm0 0"/><path d="m400 208h32v16h-32zm0 0"/><path d="m48 32h16v16h-16zm0 0"/><path d="m48 64h16v16h-16zm0 0"/><path d="m32 48h16v16h-16zm0 0"/><path d="m64 48h16v16h-16zm0 0"/><path d="m432 416h16v16h-16zm0 0"/><path d="m432 448h16v16h-16zm0 0"/><path d="m416 432h16v16h-16zm0 0"/><path d="m448 432h16v16h-16zm0 0"/><path d="m32 304h160v16h-160zm0 0"/><path d="m208 304h16v16h-16zm0 0"/></svg>