<svg height="464pt" viewBox="0 0 464 464" width="464pt" xmlns="http://www.w3.org/2000/svg"><path d="m24 432h176c10.414062 0 19.214844-6.710938 22.527344-16h-221.054688c3.3125 9.289062 12.113282 16 22.527344 16zm0 0"/><path d="m240 335.59375v32c68.601562-4.019531 123.574219-58.992188 127.59375-127.59375h-23.59375c-2.9375 0-5.71875-.609375-8.328125-1.574219-3.175781 51.6875-44.183594 93.222657-95.671875 97.167969zm0 0"/><path d="m379.863281 327.398438c11.59375-17.925782 19.730469-37.542969 24.183594-58.300782l1.058594-4.921875 26.894531-6.480469v-17.695312h-48.40625c-4.058594 77.414062-66.179688 139.535156-143.59375 143.59375v24.40625c0 9.039062-3.128906 17.296875-8.207031 24h25.902343l6.480469-26.886719 4.921875-1.058593c20.757813-4.460938 40.375-12.589844 58.300782-24.183594l4.226562-2.734375 23.621094 14.464843 36.347656-36.34375-14.457031-23.625zm0 0"/><path d="m240 319.59375c44.785156-4.058594 80-41.769531 80-87.59375 0-48.519531-39.480469-88-88-88s-88 39.480469-88 88c0 8.183594 1.167969 16.222656 3.367188 24h52.632812c22.054688 0 40 17.945312 40 40zm0 0"/><path d="m84.136719 136.601562c-11.59375 17.925782-19.730469 37.542969-24.183594 58.300782l-1.058594 4.921875-26.894531 6.480469v49.695312h49.921875c-1.257813-7.910156-1.921875-15.945312-1.921875-24 0-83.816406 68.183594-152 152-152 31.761719 0 62.398438 9.976562 88 28.191406v-28.4375c-15.921875-9.226562-32.984375-15.960937-50.902344-19.808594l-4.921875-1.058593-6.480469-26.886719h-51.398437l-6.480469 26.886719-4.921875 1.058593c-20.757812 4.460938-40.375 12.589844-58.300781 24.183594l-4.226562 2.734375-23.625-14.464843-36.34375 36.34375 14.457031 23.625zm0 0"/><path d="m232 128c37.070312 0 69.585938 19.550781 88 48.832031v-48.367187c-24.566406-20.90625-55.640625-32.464844-88-32.464844-74.992188 0-136 61.007812-136 136 0 8.078125.910156 16.105469 2.320312 24h32.535157c-1.847657-7.832031-2.855469-15.855469-2.855469-24 0-57.34375 46.65625-104 104-104zm0 0"/><path d="m64 448h96v16h-96zm0 0"/><path d="m200 272h-176c-13.230469 0-24 10.769531-24 24v104h224v-104c0-13.230469-10.769531-24-24-24zm-24 32h-160v-16h160zm32 0h-16v-16h16zm0 0"/><path d="m336 48h128v112h-128zm0 0"/><path d="m456 0h-112c-4.40625 0-8 3.585938-8 8v24h128v-24c0-4.414062-3.59375-8-8-8zm0 0"/><path d="m336 216c0 4.414062 3.59375 8 8 8h112c4.40625 0 8-3.585938 8-8v-40h-128zm48-24h32v16h-32zm0 0"/><path d="m32 16h16v16h-16zm0 0"/><path d="m32 48h16v16h-16zm0 0"/><path d="m16 32h16v16h-16zm0 0"/><path d="m48 32h16v16h-16zm0 0"/><path d="m416 400h16v16h-16zm0 0"/><path d="m416 432h16v16h-16zm0 0"/><path d="m400 416h16v16h-16zm0 0"/><path d="m432 416h16v16h-16zm0 0"/></svg>