<?xml version="1.0"?>
<svg xmlns="http://www.w3.org/2000/svg" viewBox="0 0 64 64" width="512" height="512"><g id="Computer_smartphone" data-name="Computer smartphone"><polygon points="36.333 44 27.667 44 23.5 54 18 54 18 56 40 56 40 54 40 52.8 36.333 44"/><rect x="14" y="54" width="2" height="2"/><path d="M60,31a3,3,0,0,0-1.5-2.593,2.848,2.848,0,0,0-.733-.3A6,6,0,0,0,57,28H56v1a2,2,0,0,1-2,2H48a2,2,0,0,1-2-2V28H45a3,3,0,0,0-3,3V57a3,3,0,0,0,3,3H57a3,3,0,0,0,3-3ZM48,57H46V55h2Zm4,0H50V55h2Zm4,0H54V55h2Z"/><path d="M60,5a1,1,0,0,0-1-1H5A1,1,0,0,0,4,5V41a1,1,0,0,0,1,1H40V36H5V5H59V26.428a4.761,4.761,0,0,1,.5.247A4.978,4.978,0,0,1,60,27Z"/><path d="M45,26H57V7H7V34H40V31A5.006,5.006,0,0,1,45,26ZM29,33H27V31h2Zm4,0H31V31h2Zm4,0H35V31h2Z"/><rect x="48" y="28" width="6" height="1"/></g></svg>
