<?xml version="1.0" encoding="iso-8859-1"?>
<!-- Generator: Adobe Illustrator 19.0.0, SVG Export Plug-In . SVG Version: 6.00 Build 0)  -->
<svg version="1.1" id="Capa_1" xmlns="http://www.w3.org/2000/svg" xmlns:xlink="http://www.w3.org/1999/xlink" x="0px" y="0px"
	 viewBox="0 0 480 480" style="enable-background:new 0 0 480 480;" xml:space="preserve">
<g>
	<g>
		<g>
			<rect x="296" y="352" width="16" height="16"/>
			<rect x="264" y="352" width="16" height="16"/>
			<rect x="328" y="320" width="16" height="16"/>
			<rect x="328" y="352" width="16" height="16"/>
			<rect x="232" y="352" width="16" height="16"/>
			<rect x="200" y="352" width="16" height="16"/>
			<rect x="168" y="352" width="16" height="16"/>
			<rect x="328" y="288" width="16" height="16"/>
			<rect x="328" y="256" width="16" height="16"/>
			<rect x="72" y="80" width="16" height="16"/>
			<rect x="104" y="80" width="16" height="16"/>
			<rect x="168" y="80" width="16" height="16"/>
			<rect x="136" y="80" width="16" height="16"/>
			<rect x="72" y="144" width="16" height="16"/>
			<rect x="72" y="112" width="16" height="16"/>
			<rect x="72" y="176" width="16" height="16"/>
			<rect x="72" y="208" width="16" height="16"/>
			<path d="M448,0H224c-13.255,0-24,10.745-24,24v160c0,13.255,10.745,24,24,24h88v16h-40v16h128v-16h-40v-16h88
				c13.255,0,24-10.745,24-24V24C472,10.745,461.255,0,448,0z M344,224h-16v-16h16V224z M456,184c0,4.418-3.582,8-8,8H224
				c-4.418,0-8-3.582-8-8v-7.84h240V184z M456,160.16H216V24c0-4.418,3.582-8,8-8h224c4.418,0,8,3.582,8,8V160.16z"/>
			<path d="M128,240H32c-13.255,0-24,10.745-24,24v192c0,13.255,10.745,24,24,24h96c13.255,0,24-10.745,24-24V264
				C152,250.745,141.255,240,128,240z M136,456c0,4.418-3.582,8-8,8H32c-4.418,0-8-3.582-8-8v-8h112V456z M136,432H24V280h112V432z
				 M24,264c0-4.418,3.582-8,8-8h96c4.418,0,8,3.582,8,8H24z"/>
			<path d="M335.947,127.947c-12.548-0.017-24.361-5.921-31.907-15.947H320V96h-40v40h16v-8.896
				c21.558,22.127,56.972,22.588,79.099,1.029C385.922,117.588,392.019,103.112,392,88h-16
				C375.971,110.091,358.038,127.976,335.947,127.947z"/>
			<path d="M48,395.744c19.759,17.673,50.104,15.982,67.777-3.777c7.864-8.792,12.215-20.171,12.223-31.967h-16
				c0,17.673-14.327,32-32,32c-7.795,0-15.322-2.844-21.168-8H72v-16H32v40h16V395.744z"/>
			<path d="M79.998,327.998c7.796,0,15.323,2.845,21.17,8.002H88v16h40v-40h-16v12.256c-19.759-17.673-50.104-15.982-67.777,3.777
				C36.359,336.825,32.008,348.204,32,360h16C47.999,342.327,62.325,327.999,79.998,327.998z"/>
			<path d="M376,48.888c-21.569-22.122-56.988-22.571-79.11-1.002C286.076,58.43,279.984,72.897,280,88h16
				c0.026-22.08,17.92-39.974,40-40c12.586,0.02,24.433,5.944,32,16h-16v16h40V40h-16V48.888z"/>
		</g>
	</g>
</g>
<g>
</g>
<g>
</g>
<g>
</g>
<g>
</g>
<g>
</g>
<g>
</g>
<g>
</g>
<g>
</g>
<g>
</g>
<g>
</g>
<g>
</g>
<g>
</g>
<g>
</g>
<g>
</g>
<g>
</g>
</svg>
