<svg height="480pt" viewBox="0 0 480 480" width="480pt" xmlns="http://www.w3.org/2000/svg"><path d="m456 128h-8v-104c0-13.253906-10.746094-24-24-24h-400c-13.253906 0-24 10.746094-24 24v320c0 13.253906 10.746094 24 24 24h128v48h-40c-13.253906 0-24 10.746094-24 24v16c0 13.253906 10.746094 24 24 24h344c13.253906 0 24-10.746094 24-24v-304c0-13.253906-10.746094-24-24-24zm8 24v8h-176v-8c0-4.417969 3.582031-8 8-8h160c4.417969 0 8 3.582031 8 8zm-176 24h176v256h-176zm-272-152c0-4.417969 3.582031-8 8-8h400c4.417969 0 8 3.582031 8 8v104h-136c-13.253906 0-24 10.746094-24 24v152h-256zm0 320v-24h256v32h-248c-4.417969 0-8-3.582031-8-8zm152 24h104v48h-104zm-64 88v-16c0-4.417969 3.582031-8 8-8h160v24c.027344 2.730469.523438 5.4375 1.472656 8h-161.472656c-4.417969 0-8-3.582031-8-8zm352 8h-160c-4.417969 0-8-3.582031-8-8v-8h176v8c0 4.417969-3.582031 8-8 8zm0 0"/><path d="m440 240h-128c-4.417969 0-8 3.582031-8 8v112c0 4.417969 3.582031 8 8 8h128c4.417969 0 8-3.582031 8-8v-112c0-4.417969-3.582031-8-8-8zm-8 112h-112v-96h112zm0 0"/><path d="m56 176h128c4.417969 0 8-3.582031 8-8v-112c0-4.417969-3.582031-8-8-8h-128c-4.417969 0-8 3.582031-8 8v112c0 4.417969 3.582031 8 8 8zm8-112h112v96h-112zm0 0"/><path d="m116.425781 133.265625-24.851562-12.425781-7.148438 14.320312 32 16c3.953125 1.976563 8.761719.371094 10.734375-3.585937l32-64-14.320312-7.148438zm0 0"/><path d="m376 344c3.046875.015625 5.839844-1.699219 7.199219-4.425781l32-64-14.320313-7.148438-28.414062 56.839844-24.847656-12.425781-7.152344 14.320312 32 16c1.097656.546875 2.308594.835938 3.535156.839844zm0 0"/><path d="m208 48h32v16h-32zm0 0"/><path d="m256 48h144v16h-144zm0 0"/><path d="m208 80h32v16h-32zm0 0"/><path d="m256 80h144v16h-144zm0 0"/><path d="m48 192h32v16h-32zm0 0"/><path d="m96 192h144v16h-144zm0 0"/><path d="m48 224h32v16h-32zm0 0"/><path d="m96 224h144v16h-144zm0 0"/><path d="m48 256h32v16h-32zm0 0"/><path d="m96 256h144v16h-144zm0 0"/></svg>