<?xml version="1.0" encoding="iso-8859-1"?>
<!-- Generator: Adobe Illustrator 19.0.0, SVG Export Plug-In . SVG Version: 6.00 Build 0)  -->
<svg version="1.1" id="Capa_1" xmlns="http://www.w3.org/2000/svg" xmlns:xlink="http://www.w3.org/1999/xlink" x="0px" y="0px"
	 viewBox="0 0 512 512" style="enable-background:new 0 0 512 512;" xml:space="preserve">
<g>
	<g>
		<path d="M405.397,288h-64.16c-2.803,0.003-5.492-1.115-7.467-3.104c-1.998-2.009-3.115-4.73-3.104-7.563V256
			c0-5.891,4.776-10.667,10.667-10.667h64c5.891,0,10.667,4.776,10.667,10.667h21.333c0-17.673-14.327-32-32-32h-64
			c-17.673,0-32,14.327-32,32v21.333c0,0.011,0,0.021,0,0.032c-0.018,17.638,14.266,31.95,31.904,31.968h64.171
			C411.27,309.374,416,314.138,416,320v21.333c0,5.891-4.776,10.667-10.667,10.667h-64c-5.891,0-10.667-4.776-10.667-10.667h-21.333
			c0,17.673,14.327,32,32,32h64c17.673,0,32-14.327,32-32V320C437.333,302.352,423.045,288.035,405.397,288z"/>
	</g>
</g>
<g>
	<g>
		<rect x="362.667" y="202.667" width="21.333" height="42.667"/>
	</g>
</g>
<g>
	<g>
		<rect x="362.667" y="362.667" width="21.333" height="32"/>
	</g>
</g>
<g>
	<g>
		<path d="M288,181.333c-5.891,0-10.667,4.776-10.667,10.667v32h21.333v-21.333H320v-21.333H288z"/>
	</g>
</g>
<g>
	<g>
		<path d="M458.667,181.333h-32v21.333H448V224h21.333v-32C469.333,186.109,464.558,181.333,458.667,181.333z"/>
	</g>
</g>
<g>
	<g>
		<path d="M448,362.667V384h-21.333v21.333h32c5.891,0,10.667-4.776,10.667-10.667v-32H448z"/>
	</g>
</g>
<g>
	<g>
		<path d="M298.667,384v-21.333h-21.333v32c0,5.891,4.776,10.667,10.667,10.667h32V384H298.667z"/>
	</g>
</g>
<g>
	<g>
		<path d="M170.731,160h-64.16c-2.803,0.003-5.492-1.115-7.467-3.104c-1.998-2.009-3.115-4.73-3.104-7.563V128
			c0-5.891,4.776-10.667,10.667-10.667h64c5.891,0,10.667,4.776,10.667,10.667h21.333c0-17.673-14.327-32-32-32h-64
			c-17.673,0-32,14.327-32,32v21.333c0,0.011,0,0.021,0,0.032c-0.018,17.638,14.266,31.95,31.904,31.968h64.171
			c5.862,0.041,10.592,4.805,10.592,10.667v21.333c0,5.891-4.776,10.667-10.667,10.667h-64C100.776,224,96,219.224,96,213.333
			H74.667c0,17.673,14.327,32,32,32h64c17.673,0,32-14.327,32-32V192C202.667,174.352,188.379,160.035,170.731,160z"/>
	</g>
</g>
<g>
	<g>
		<rect x="128" y="74.667" width="21.333" height="42.667"/>
	</g>
</g>
<g>
	<g>
		<rect x="128" y="234.667" width="21.333" height="32"/>
	</g>
</g>
<g>
	<g>
		<path d="M53.333,42.667c-5.891,0-10.667,4.776-10.667,10.667v32H64V64h21.333V42.667H53.333z"/>
	</g>
</g>
<g>
	<g>
		<path d="M458.667,42.667h-32V64h42.667V53.333C469.333,47.442,464.558,42.667,458.667,42.667z"/>
	</g>
</g>
<g>
	<g>
		<path d="M64,277.333V256H42.667v32c0,5.891,4.776,10.667,10.667,10.667h32v-21.333H64z"/>
	</g>
</g>
<g>
	<g>
		<rect x="384" y="42.667" width="21.333" height="21.333"/>
	</g>
</g>
<g>
	<g>
		<rect x="341.333" y="42.667" width="21.333" height="21.333"/>
	</g>
</g>
<g>
	<g>
		<rect x="298.667" y="42.667" width="21.333" height="21.333"/>
	</g>
</g>
<g>
	<g>
		<path d="M469.333,0H42.667C19.103,0,0,19.103,0,42.667v320c0,23.564,19.103,42.667,42.667,42.667H224V384H42.667
			c-11.782,0-21.333-9.551-21.333-21.333v-320c0-11.782,9.551-21.333,21.333-21.333h426.667c11.782,0,21.333,9.551,21.333,21.333v32
			H512v-32C512,19.103,492.898,0,469.333,0z"/>
	</g>
</g>
<g>
	<g>
		<path d="M106.667,469.333H224V448H106.667c-17.673,0-32,14.327-32,32s14.327,32,32,32H224v-21.333H106.667
			C100.776,490.667,96,485.891,96,480C96,474.109,100.776,469.333,106.667,469.333z"/>
	</g>
</g>
<g>
	<g>
		<path d="M202.667,448v-53.333h-21.333v64c0,5.891,4.776,10.667,10.667,10.667h32V448H202.667z"/>
	</g>
</g>
<g>
	<g>
		<rect y="320" width="224" height="21.333"/>
	</g>
</g>
<g>
	<g>
		<rect x="181.333" y="352" width="42.667" height="21.333"/>
	</g>
</g>
<g>
	<g>
		<path d="M458.667,85.333H288c-29.441,0.035-53.298,23.893-53.333,53.333v320C234.702,488.107,258.559,511.965,288,512h170.667
			c29.441-0.035,53.298-23.893,53.333-53.333v-320C511.965,109.226,488.107,85.369,458.667,85.333z M490.667,458.667
			c0,17.673-14.327,32-32,32H288c-17.673,0-32-14.327-32-32v-320c0-17.673,14.327-32,32-32h170.667c17.673,0,32,14.327,32,32
			V458.667z"/>
	</g>
</g>
<g>
	<g>
		<rect x="245.333" y="149.333" width="266.667" height="21.333"/>
	</g>
</g>
<g>
	<g>
		<rect x="320" y="117.333" width="96" height="21.333"/>
	</g>
</g>
<g>
	<g>
		<path d="M426.667,416c-4.043-0.002-7.739,2.282-9.547,5.899l-7.712,15.435h-72.149l-7.712-15.435
			c-1.807-3.617-5.504-5.901-9.547-5.899h-74.667v21.333h68.075l7.712,15.435c1.807,3.617,5.504,5.901,9.547,5.899H416
			c4.062,0.022,7.784-2.265,9.6-5.899l7.659-15.435h68.075V416H426.667z"/>
	</g>
</g>
<g>
</g>
<g>
</g>
<g>
</g>
<g>
</g>
<g>
</g>
<g>
</g>
<g>
</g>
<g>
</g>
<g>
</g>
<g>
</g>
<g>
</g>
<g>
</g>
<g>
</g>
<g>
</g>
<g>
</g>
</svg>
