<svg viewBox="0 0 512 512" xmlns="http://www.w3.org/2000/svg"><path d="m407 242h-120c-8.277344 0-15 6.722656-15 15v15h150v-15c0-8.277344-6.722656-15-15-15zm0 0"/><path d="m467 0h-422c-24.8125 0-45 20.1875-45 45v75h512v-75c0-24.8125-20.1875-45-45-45zm-392.027344 90c-8.285156 0-15-6.714844-15-15s6.714844-15 15-15 15 6.714844 15 15-6.714844 15-15 15zm61 0c-8.285156 0-15-6.714844-15-15s6.714844-15 15-15 15 6.714844 15 15-6.714844 15-15 15zm61 0c-8.285156 0-15-6.714844-15-15s6.714844-15 15-15 15 6.714844 15 15-6.714844 15-15 15zm240.027344 0h-180c-8.289062 0-15-6.710938-15-15s6.710938-15 15-15h180c8.289062 0 15 6.710938 15 15s-6.710938 15-15 15zm0 0"/><path d="m272 497c0 8.277344 6.722656 15 15 15h120c8.277344 0 15-6.722656 15-15v-15h-150zm0 0"/><path d="m327.605469 387.605469c-5.859375 5.859375-15.351563 5.859375-21.210938 0l-34.394531-34.394531v98.789062h150v-68.789062l-45-45zm0 0"/><path d="m0 370.789062 155.394531-154.394531c5.859375-5.859375 16.351563-5.859375 22.210938 0l64.394531 64.394531v-23.789062c0-24.8125 20.1875-45 45-45h120c24.8125 0 45 20.1875 45 45v113.789062l60 60v-280.789062h-512zm0 0"/><path d="m242 323.210938-76-75-166 165v53.789062c0 24.8125 20.1875 45 45 45h199.761719c-1.679688-4.714844-2.761719-9.714844-2.761719-15zm0 0"/><path d="m452 497c0 5.285156-1.082031 10.285156-2.761719 15h17.761719c22.882812 0 41.621094-17.226562 44.429688-39.359375l-59.429688-59.429687zm0 0"/><path d="m272 310.789062 45 45 49.394531-49.394531c2.929688-2.929687 6.769531-4.394531 10.605469-4.394531h-105zm0 0"/><path d="m387.605469 306.394531 34.394531 34.394531v-38.789062h-45c3.839844 0 7.675781 1.464844 10.605469 4.394531zm0 0"/></svg>