<svg height="597.33331pt" viewBox="-18 -18 597.33331 597.33331" width="597.33331pt" xmlns="http://www.w3.org/2000/svg"><path d="m340 550c0 5.523438 4.476562 10 10 10h200c5.523438 0 10-4.476562 10-10v-10h-220zm0 0"/><path d="m520 140v-130c0-5.523438-4.476562-10-10-10h-500c-5.523438 0-10 4.476562-10 10v350h320v-190c0-16.566406 13.433594-30 30-30zm-220-100h180v20h-180zm-260 10c0-5.523438 4.476562-10 10-10h160c5.523438 0 10 4.476562 10 10v140c0 5.523438-4.476562 10-10 10h-160c-5.523438 0-10-4.476562-10-10zm40 270h-40v-20h40zm0-40h-40v-20h40zm0-40h-40v-20h40zm200 80h-180v-20h180zm0-40h-180v-20h180zm0-40h-180v-20h180zm0-140h-40v-20h40zm0-40h-40v-20h40zm20 40v-20h180v20zm0 0"/><path d="m320 520h-200c-5.523438 0-10 4.476562-10 10v20c0 5.523438 4.476562 10 10 10h201.839844c-1.183594-3.203125-1.804688-6.585938-1.839844-10zm0 0"/><path d="m200 60h-140v120h140zm-61 104.46875c-2.46875 4.945312-8.476562 6.953125-13.417969 4.480469l-40-20 8.941407-17.898438 31.058593 15.53125 35.515625-71 17.902344 8.941407zm0 0"/><path d="m190 440h130v60h-130zm0 0"/><path d="m320 380h-320v30c0 5.523438 4.476562 10 10 10h310zm0 0"/><path d="m520 300h-140v120h140zm-61 104.46875c-2.46875 4.945312-8.476562 6.953125-13.417969 4.480469l-40-20 8.941407-17.898438 31.058593 15.53125 35.515625-71.050781 17.902344 8.9375zm0 0"/><path d="m550 160h-200c-5.523438 0-10 4.476562-10 10v10h220v-10c0-5.523438-4.476562-10-10-10zm0 0"/><path d="m340 520h220v-320h-220zm20-230c0-5.523438 4.476562-10 10-10h160c5.523438 0 10 4.476562 10 10v140c0 5.523438-4.476562 10-10 10h-160c-5.523438 0-10-4.476562-10-10zm0 0"/></svg>