<svg height="408pt" viewBox="0 -28 408 408" width="408pt" xmlns="http://www.w3.org/2000/svg"><path d="m128 280h272c4.417969 0 8-3.582031 8-8v-40h-280zm96-32h16v16h-16zm0 0"/><path d="m0 304h112v-136h-112zm56-120c22.089844 0 40 17.910156 40 40s-17.910156 40-40 40-40-17.910156-40-40c.027344-22.082031 17.917969-39.972656 40-40zm-40 88h80v16h-80zm0 0"/><path d="m104 136h-96c-4.417969 0-8 3.582031-8 8v8h112v-8c0-4.417969-3.582031-8-8-8zm0 0"/><path d="m128 32h-40v88h16c13.253906 0 24 10.746094 24 24zm0 0"/><path d="m264 320v-24h-64v24c0 1.453125-.394531 2.875-1.144531 4.121094l-16.71875 27.878906h99.726562l-16.71875-27.878906c-.75-1.246094-1.144531-2.667969-1.144531-4.121094zm0 0"/><path d="m288 88c0 30.929688-25.070312 56-56 56s-56-25.070312-56-56 25.070312-56 56-56 56 25.070312 56 56zm0 0"/><path d="m0 344c0 4.417969 3.582031 8 8 8h96c4.417969 0 8-3.582031 8-8v-24h-112zm48-16h16v16h-16zm0 0"/><path d="m80 224c0 13.253906-10.746094 24-24 24s-24-10.746094-24-24 10.746094-24 24-24 24 10.746094 24 24zm0 0"/><path d="m400 0h-336c-4.417969 0-8 3.582031-8 8v112h16v-96c0-4.417969 3.582031-8 8-8h56c4.417969 0 8 3.582031 8 8v160c0 4.417969-3.582031 8-8 8h-8v24h280v-208c0-4.417969-3.582031-8-8-8zm-104 192h-128v-16h128zm-64-32c-39.765625 0-72-32.234375-72-72s32.234375-72 72-72 72 32.234375 72 72c-.042969 39.746094-32.253906 71.957031-72 72zm160 24c0 4.417969-3.582031 8-8 8h-56c-4.417969 0-8-3.582031-8-8v-56c0-4.417969 3.582031-8 8-8h56c4.417969 0 8 3.582031 8 8zm0-88c0 4.417969-3.582031 8-8 8h-56c-4.417969 0-8-3.582031-8-8v-72c0-4.417969 3.582031-8 8-8h56c4.417969 0 8 3.582031 8 8zm0 0"/><path d="m336 136h40v40h-40zm0 0"/><path d="m336 32h40v56h-40zm0 0"/></svg>