<svg height="512pt" viewBox="0 -22 512 512" width="512pt" xmlns="http://www.w3.org/2000/svg"><path d="m380.375 117.195312v-105.269531c0-5.886719-4.796875-10.683593-10.683594-10.683593h-359.007812c-5.886719 0-10.683594 4.796874-10.683594 10.683593v208.308594c0 5.886719 4.796875 10.683594 10.683594 10.683594h149.59375 144.703125v-69.375c0-24.453125 19.898437-44.347657 44.359375-44.347657zm-228.992188-89.972656h85.773438c8.960938 0 16.234375 7.273438 16.234375 16.234375 0 8.976563-7.273437 16.238281-16.234375 16.238281h-85.773438c-8.964843 0-16.238281-7.265624-16.238281-16.238281 0-8.960937 7.273438-16.234375 16.238281-16.234375zm-81.988281 150.492188c0 8.960937-7.273437 16.238281-16.234375 16.238281-8.964844 0-16.238281-7.277344-16.238281-16.238281v-16.59375c0-8.972656 7.277344-16.234375 16.238281-16.234375 8.960938 0 16.234375 7.261719 16.234375 16.234375zm53.960938 0c0 8.960937-7.273438 16.238281-16.234375 16.238281-8.976563 0-16.238282-7.277344-16.238282-16.238281v-16.59375c0-8.972656 7.261719-16.234375 16.238282-16.234375 8.960937 0 16.234375 7.261719 16.234375 16.234375zm161.609375-63.714844h-181.394532c-8.960937 0-16.234374-7.273438-16.234374-16.234375 0-8.976563 7.273437-16.238281 16.234374-16.238281h181.394532c8.960937 0 16.234375 7.265625 16.234375 16.238281 0 8.960937-7.273438 16.234375-16.234375 16.234375zm0 0"/><path d="m270.515625 320.394531h-44.175781l-4.351563-57.003906h-63.601562l-4.351563 57.003906h-44.171875c-8.96875 0-16.238281 7.269531-16.238281 16.234375 0 8.96875 7.269531 16.238282 16.238281 16.238282h160.652344c8.96875 0 16.238281-7.269532 16.238281-16.238282-.003906-8.964844-7.273437-16.234375-16.238281-16.234375zm0 0"/><path d="m500.125 149.667969c-18.285156 0-133.65625 0-150.785156 0-6.558594 0-11.886719 5.328125-11.886719 11.875v17.070312h174.546875v-17.070312c0-6.546875-5.324219-11.875-11.875-11.875zm0 0"/><path d="m337.453125 456.511719c0 6.550781 5.328125 11.875 11.886719 11.875h150.785156c6.550781 0 11.875-5.324219 11.875-11.875v-17.632813h-174.546875zm0 0"/><path d="m337.453125 211.085938v195.320312h174.546875v-195.320312c-36.386719 0-138.027344 0-174.546875 0zm120.316406 87.820312h16.59375c8.960938 0 16.234375 7.273438 16.234375 16.238281 0 8.972657-7.273437 16.234375-16.234375 16.234375h-16.59375c-8.972656 0-16.238281-7.261718-16.238281-16.234375 0-8.964843 7.265625-16.238281 16.238281-16.238281zm0 53.960938h16.59375c8.960938 0 16.234375 7.273437 16.234375 16.238281 0 8.960937-7.273437 16.234375-16.234375 16.234375h-16.59375c-8.972656 0-16.238281-7.273438-16.238281-16.234375 0-8.964844 7.265625-16.238281 16.238281-16.238281zm-65.164062 18.84375c0 8.964843-7.273438 16.238281-16.234375 16.238281-8.976563 0-16.238282-7.273438-16.238282-16.238281 0-10.964844 0-114.152344 0-125.367188 0-8.964844 7.261719-16.238281 16.238282-16.238281 8.960937 0 16.234375 7.265625 16.234375 16.238281zm0 0"/><path d="m457.953125 0h-17.714844c-8.96875 0-16.238281 7.269531-16.238281 16.238281 0 8.964844 7.269531 16.234375 16.238281 16.234375h17.714844c11.894531 0 21.574219 9.679688 21.574219 21.574219v20.898437c0 8.96875 7.269531 16.238282 16.234375 16.238282 8.96875 0 16.238281-7.269532 16.238281-16.238282v-20.898437c0-29.800781-24.246094-54.046875-54.046875-54.046875zm0 0"/><path d="m245.714844 435.914062h-17.71875c-11.894532 0-21.570313-9.679687-21.570313-21.574218v-20.898438c0-8.96875-7.269531-16.238281-16.238281-16.238281-8.964844 0-16.234375 7.269531-16.234375 16.238281v20.898438c0 29.800781 24.242187 54.046875 54.042969 54.046875h17.71875c8.96875 0 16.238281-7.269531 16.238281-16.238281 0-8.964844-7.269531-16.234376-16.238281-16.234376zm0 0"/></svg>