<?xml version="1.0" encoding="iso-8859-1"?>
<!-- Generator: Adobe Illustrator 21.0.0, SVG Export Plug-In . SVG Version: 6.00 Build 0)  -->
<svg xmlns="http://www.w3.org/2000/svg" xmlns:xlink="http://www.w3.org/1999/xlink" version="1.1" id="Capa_1" x="0px" y="0px" viewBox="0 0 512 512" style="enable-background:new 0 0 512 512;" xml:space="preserve" width="512" height="512">
<g>
	<polygon points="230.721,482 198.039,482 198.039,512 410.186,512 410.186,482 377.71,482 377.71,459.314 230.721,459.314  "/>
	<path d="M306.562,245.253h-11.993v9.29h11.993c4.392,0,6.588-1.604,6.588-4.646C313.15,246.857,310.954,245.253,306.562,245.253z"/>
	<path d="M512,126.668H187.605v171.55H96.357v23.812H512V126.668z M308.25,268.479h-33.275v-59.12h31.587   c16.3,0,23.901,6.503,23.901,15.456c0,5.489-2.787,10.05-8.192,12.753c6.926,2.533,10.979,7.601,10.979,14.611   C333.25,262.482,324.551,268.479,308.25,268.479z"/>
	<path d="M96.357,352.029v77.285H512v-77.285H96.357z M289.184,405.716v-30h32.841v30H289.184z"/>
	<polygon points="157.605,231.968 17.256,231.968 0,231.968 0,268.218 157.605,268.218  "/>
	<path d="M157.605,201.968V0H0v201.968h17.256H157.605z M68.072,95.074h19.594l25.845,59.12H92.902l-3.969-10.304H66.468   l-3.97,10.304h-20.27L68.072,95.074z"/>
	<path d="M310.363,227.686c0-2.871-2.027-4.392-6.504-4.392h-9.29v8.783h9.29C308.335,232.077,310.363,230.558,310.363,227.686z"/>
	<polygon points="77.7,114.668 71.957,129.533 83.443,129.533  "/>
</g>















</svg>
