<svg height="448pt" viewBox="-8 0 448 448" width="448pt" xmlns="http://www.w3.org/2000/svg"><path d="m272 336h16v16h-16zm0 0"/><path d="m240 336h16v16h-16zm0 0"/><path d="m304 304h16v16h-16zm0 0"/><path d="m304 336h16v16h-16zm0 0"/><path d="m208 336h16v16h-16zm0 0"/><path d="m176 336h16v16h-16zm0 0"/><path d="m144 336h16v16h-16zm0 0"/><path d="m304 272h16v16h-16zm0 0"/><path d="m48 64h16v16h-16zm0 0"/><path d="m80 64h16v16h-16zm0 0"/><path d="m144 64h16v16h-16zm0 0"/><path d="m112 64h16v16h-16zm0 0"/><path d="m48 128h16v16h-16zm0 0"/><path d="m48 96h16v16h-16zm0 0"/><path d="m48 160h16v16h-16zm0 0"/><path d="m48 192h16v16h-16zm0 0"/><path d="m104 240h-96c-4.417969 0-8 3.582031-8 8h112c0-4.417969-3.582031-8-8-8zm0 0"/><path d="m8 448h96c4.417969 0 8-3.582031 8-8v-8h-112v8c0 4.417969 3.582031 8 8 8zm0 0"/><path d="m0 416h112v-152h-112zm56-120c11.8125.007812 23.203125 4.371094 32 12.257812v-12.257812h16v40h-40v-16h13.167969c-9.433594-8.320312-22.867188-10.34375-34.332031-5.167969-11.46875 5.175781-18.835938 16.589844-18.835938 29.167969h-16c.027344-26.5 21.5-47.972656 48-48zm-48 56h40v16h-13.167969c9.433594 8.320312 22.867188 10.34375 34.332031 5.167969 11.46875-5.175781 18.835938-16.589844 18.835938-29.167969h16c-.011719 18.921875-11.140625 36.070312-28.417969 43.792969-17.277343 7.71875-37.476562 4.566406-51.582031-8.050781v12.257812h-16zm0 0"/><path d="m192 144.160156h240v-136.160156c0-4.417969-3.582031-8-8-8h-224c-4.417969 0-8 3.582031-8 8zm120-128.160156c15.058594.039062 29.46875 6.125 40 16.886719v-8.886719h16v40h-40v-16h16c-10.332031-13.773438-28.316406-19.390625-44.648438-13.949219-16.335937 5.445313-27.351562 20.730469-27.351562 37.949219h-16c.035156-30.914062 25.085938-55.964844 56-56zm-56 64h40v16h-15.960938c10.339844 13.738281 28.304688 19.332031 44.617188 13.890625 16.3125-5.4375 27.320312-20.695313 27.34375-37.890625h16c.027344 22.769531-13.746094 43.28125-34.835938 51.871094-21.085937 8.589844-45.273437 3.542968-61.164062-12.765625v8.894531h-16zm0 0"/><path d="m304 240h16v16h-16zm0 0"/><path d="m192 160.160156v7.839844c0 4.417969 3.582031 8 8 8h224c4.417969 0 8-3.582031 8-8v-7.839844zm0 0"/><path d="m320 192h-16v16h-48v16h112v-16h-48zm0 0"/></svg>