<?xml version="1.0" encoding="iso-8859-1"?>
<!-- Generator: Adobe Illustrator 19.0.0, SVG Export Plug-In . SVG Version: 6.00 Build 0)  -->
<svg version="1.1" id="Layer_1" xmlns="http://www.w3.org/2000/svg" xmlns:xlink="http://www.w3.org/1999/xlink" x="0px" y="0px"
	 viewBox="0 0 512 512" style="enable-background:new 0 0 512 512;" xml:space="preserve">
<g>
	<g>
		<circle cx="249.6" cy="223.617" r="19.2"/>
	</g>
</g>
<g>
	<g>
		<path d="M476.229,230.013H448v-55.04c0-33.225-26.932-60.16-60.16-60.16H151.608c24.979-36.477,66.948-59.446,112.356-59.446
			c12.992,0,25.871,1.87,38.226,5.477l-20.873,29.019l104.287-0.085l-39.93-89.39l-20.026,27.84
			c-19.613-7.405-40.538-11.264-61.684-11.264c-36.278,0-71.06,11.037-100.585,31.921c-24.157,17.087-43.305,39.667-56.113,65.925
			H60.16c-33.225,0-60.16,26.935-60.16,60.16v225.28c0,33.225,26.935,60.16,60.16,60.16h94.72l-20.48,51.2h179.2l-20.48-51.2h36.22
			v15.429c0,19.757,16.015,35.771,35.77,35.771h111.119c19.755,0,35.771-16.015,35.771-35.771V265.783
			C512,246.028,495.983,230.013,476.229,230.013z M191.118,473.212l4.535-11.338l0.585-1.462h55.524l0.585,1.462l4.535,11.338
			H191.118z M329.34,422.013H60.16c-11.999,0-21.76-9.761-21.76-21.76v-16.64h290.94V422.013z M329.34,265.783v79.43H320l-51.2-76.8
			l-31.38,47.071L192,242.813l-64,102.4H38.4v-170.24c0-11.999,9.761-21.76,21.76-21.76h327.68c11.999,0,21.76,9.761,21.76,21.76
			v55.04h-44.49C345.356,230.013,329.34,246.028,329.34,265.783z M420.669,496.39c-8.407,0-15.223-6.815-15.223-15.22
			c0-8.407,6.815-15.223,15.223-15.223c8.406,0,15.222,6.815,15.222,15.223C435.891,489.576,429.076,496.39,420.669,496.39z
			 M486.4,452.11H354.94V268.066H486.4V452.11z"/>
	</g>
</g>
<g>
	<g>
		<polygon points="447.308,355.59 428.65,383.579 401.642,340.37 363.589,401.256 477.75,401.256 		"/>
	</g>
</g>
<g>
	<g>
		<circle cx="435.891" cy="328.948" r="11.416"/>
	</g>
</g>
<g>
</g>
<g>
</g>
<g>
</g>
<g>
</g>
<g>
</g>
<g>
</g>
<g>
</g>
<g>
</g>
<g>
</g>
<g>
</g>
<g>
</g>
<g>
</g>
<g>
</g>
<g>
</g>
<g>
</g>
</svg>
