<?xml version="1.0" encoding="UTF-8"?>
<svg xmlns="http://www.w3.org/2000/svg" xmlns:xlink="http://www.w3.org/1999/xlink" width="512" height="512" viewBox="0 0 60 55" version="1.1"><!-- Generator: Sketch 51.3 (57544) - http://www.bohemiancoding.com/sketch --><title>038 - Responsive Design</title><desc>Created with Sketch.</desc><defs/><g id="Page-1" stroke="none" stroke-width="1" fill="none" fill-rule="evenodd"><g id="038---Responsive-Design" fill="#000000" fill-rule="nonzero"><path d="M2,47 L16,47 L16,33 L2,33 L2,47 Z M4,38 C4,37.4477153 4.44771525,37 5,37 C5.55228475,37 6,37.4477153 6,38 L6,41.586 L12.293,35.293 C12.6853789,34.9140278 13.3090848,34.9194476 13.6948186,35.3051814 C14.0805524,35.6909152 14.0859722,36.3146211 13.707,36.707 L7.414,43 L11,43 C11.5522847,43 12,43.4477153 12,44 C12,44.5522847 11.5522847,45 11,45 L5,45 C4.86887556,44.9993738 4.73912771,44.9732204 4.618,44.923 C4.37308324,44.8215091 4.17849091,44.6269168 4.077,44.382 C4.0267796,44.2608723 4.00062624,44.1311244 4,44 L4,38 Z" id="Shape"/><path d="M16,52 L16,49 L2,49 L2,52 C2,52.5522847 2.44771525,53 3,53 L15,53 C15.5522847,53 16,52.5522847 16,52 Z M9,52 C8.44771525,52 8,51.5522847 8,51 C8,50.4477153 8.44771525,50 9,50 C9.55228475,50 10,50.4477153 10,51 C10,51.5522847 9.55228475,52 9,52 Z" id="Shape"/><path d="M16,28 C16,27.4477153 15.5522847,27 15,27 L3,27 C2.44771525,27 2,27.4477153 2,28 L2,31 L16,31 L16,28 Z M10,30 L8,30 C7.44771525,30 7,29.5522847 7,29 C7,28.4477153 7.44771525,28 8,28 L10,28 C10.5522847,28 11,28.4477153 11,29 C11,29.5522847 10.5522847,30 10,30 Z" id="Shape"/><path d="M37.961,31 C37.8612267,32.3921344 37.4891955,33.7511524 36.866,35 L43.134,35 C42.5108045,33.7511524 42.1387733,32.3921344 42.039,31 L37.961,31 Z" id="Shape"/><path d="M58,3 C58,2.44771525 57.5522847,2 57,2 L23,2 C22.4477153,2 22,2.44771525 22,3 L22,23 L58,23 L58,3 Z M26,6 L25,6 C24.4477153,6 24,5.55228475 24,5 C24,4.44771525 24.4477153,4 25,4 L26,4 C26.5522847,4 27,4.44771525 27,5 C27,5.55228475 26.5522847,6 26,6 Z M38,6 L30,6 C29.4477153,6 29,5.55228475 29,5 C29,4.44771525 29.4477153,4 30,4 L38,4 C38.5522847,4 39,4.44771525 39,5 C39,5.55228475 38.5522847,6 38,6 Z M56,11 C56,11.5522847 55.5522847,12 55,12 C54.4477153,12 54,11.5522847 54,11 L54,7.414 L47.707,13.707 C47.3146211,14.0859722 46.6909152,14.0805524 46.3051814,13.6948186 C45.9194476,13.3090848 45.9140278,12.6853789 46.293,12.293 L52.586,6 L49,6 C48.4477153,6 48,5.55228475 48,5 C48,4.44771525 48.4477153,4 49,4 L55,4 C55.1311244,4.00062624 55.2608723,4.0267796 55.382,4.077 C55.7556468,4.23144559 55.9995299,4.59569172 56,5 L56,11 Z" id="Shape"/><path d="M45,39 C45.5522847,39 46,38.5522847 46,38 C46,37.4477153 45.5522847,37 45,37 L35,37 C34.4477153,37 34,37.4477153 34,38 C34,38.5522847 34.4477153,39 35,39 L45,39 Z" id="Shape"/><path d="M58,28 L58,25 L22,25 L22,28 C22,28.5522847 22.4477153,29 23,29 L57,29 C57.5522847,29 58,28.5522847 58,28 Z M40,28 C39.4477153,28 39,27.5522847 39,27 C39,26.4477153 39.4477153,26 40,26 C40.5522847,26 41,26.4477153 41,27 C41,27.5522847 40.5522847,28 40,28 Z" id="Shape"/><path d="M1,5 C1.55228475,5 2,4.55228475 2,4 L2,2 L4,2 C4.55228475,2 5,1.55228475 5,1 C5,0.44771525 4.55228475,0 4,0 L1,0 C0.44771525,0 6.76353751e-17,0.44771525 0,1 L0,4 C6.76353751e-17,4.55228475 0.44771525,5 1,5 Z" id="Shape"/><path d="M59,50 C58.4477153,50 58,50.4477153 58,51 L58,53 L56,53 C55.4477153,53 55,53.4477153 55,54 C55,54.5522847 55.4477153,55 56,55 L59,55 C59.5522847,55 60,54.5522847 60,54 L60,51 C60,50.4477153 59.5522847,50 59,50 Z" id="Shape"/><path d="M1,11 C1.55228475,11 2,10.5522847 2,10 L2,8 C2,7.44771525 1.55228475,7 1,7 C0.44771525,7 6.76353751e-17,7.44771525 0,8 L0,10 C6.76353751e-17,10.5522847 0.44771525,11 1,11 Z" id="Shape"/><path d="M1,17 C1.55228475,17 2,16.5522847 2,16 L2,14 C2,13.4477153 1.55228475,13 1,13 C0.44771525,13 6.76353751e-17,13.4477153 0,14 L0,16 C6.76353751e-17,16.5522847 0.44771525,17 1,17 Z" id="Shape"/><path d="M2,20 C2,19.4477153 1.55228475,19 1,19 C0.44771525,19 6.76353751e-17,19.4477153 0,20 L0,22 C6.76353751e-17,22.5522847 0.44771525,23 1,23 C1.55228475,23 2,22.5522847 2,22 L2,20 Z" id="Shape"/><path d="M10,2 C10.5522847,2 11,1.55228475 11,1 C11,0.44771525 10.5522847,0 10,0 L8,0 C7.44771525,0 7,0.44771525 7,1 C7,1.55228475 7.44771525,2 8,2 L10,2 Z" id="Shape"/><path d="M17,1 C17,0.44771525 16.5522847,0 16,0 L14,0 C13.4477153,0 13,0.44771525 13,1 C13,1.55228475 13.4477153,2 14,2 L16,2 C16.5522847,2 17,1.55228475 17,1 Z" id="Shape"/><path d="M52,53 L50,53 C49.4477153,53 49,53.4477153 49,54 C49,54.5522847 49.4477153,55 50,55 L52,55 C52.5522847,55 53,54.5522847 53,54 C53,53.4477153 52.5522847,53 52,53 Z" id="Shape"/><path d="M43,54 C43,54.5522847 43.4477153,55 44,55 L46,55 C46.5522847,55 47,54.5522847 47,54 C47,53.4477153 46.5522847,53 46,53 L44,53 C43.4477153,53 43,53.4477153 43,54 Z" id="Shape"/><path d="M38,55 L40,55 C40.5522847,55 41,54.5522847 41,54 C41,53.4477153 40.5522847,53 40,53 L38,53 C37.4477153,53 37,53.4477153 37,54 C37,54.5522847 37.4477153,55 38,55 Z" id="Shape"/><path d="M32,53 C31.4477153,53 31,53.4477153 31,54 C31,54.5522847 31.4477153,55 32,55 L34,55 C34.5522847,55 35,54.5522847 35,54 C35,53.4477153 34.5522847,53 34,53 L32,53 Z" id="Shape"/><path d="M26,53 C25.4477153,53 25,53.4477153 25,54 C25,54.5522847 25.4477153,55 26,55 L28,55 C28.5522847,55 29,54.5522847 29,54 C29,53.4477153 28.5522847,53 28,53 L26,53 Z" id="Shape"/><path d="M20,55 L22,55 C22.5522847,55 23,54.5522847 23,54 C23,53.4477153 22.5522847,53 22,53 L20,53 C19.4477153,53 19,53.4477153 19,54 C19,54.5522847 19.4477153,55 20,55 Z" id="Shape"/><path d="M59,44 C58.4477153,44 58,44.4477153 58,45 L58,47 C58,47.5522847 58.4477153,48 59,48 C59.5522847,48 60,47.5522847 60,47 L60,45 C60,44.4477153 59.5522847,44 59,44 Z" id="Shape"/><path d="M59,38 C58.4477153,38 58,38.4477153 58,39 L58,41 C58,41.5522847 58.4477153,42 59,42 C59.5522847,42 60,41.5522847 60,41 L60,39 C60,38.4477153 59.5522847,38 59,38 Z" id="Shape"/><path d="M59,32 C58.4477153,32 58,32.4477153 58,33 L58,35 C58,35.5522847 58.4477153,36 59,36 C59.5522847,36 60,35.5522847 60,35 L60,33 C60,32.4477153 59.5522847,32 59,32 Z" id="Shape"/></g></g></svg>
