<?xml version="1.0" encoding="iso-8859-1"?>
<!-- Generator: Adobe Illustrator 19.0.0, SVG Export Plug-In . SVG Version: 6.00 Build 0)  -->
<svg version="1.1" id="Capa_1" xmlns="http://www.w3.org/2000/svg" xmlns:xlink="http://www.w3.org/1999/xlink" x="0px" y="0px"
	 viewBox="0 0 512 512" style="enable-background:new 0 0 512 512;" xml:space="preserve">
<g>
	<g>
		<path d="M488,272V40c0-22.056-17.944-40-40-40H64C41.944,0,24,17.944,24,40v248c-13.232,0-24,10.768-24,24v176
			c0,13.232,10.768,24,24,24h96c13.232,0,24-10.768,24-24V352h39.064l-6.224,56H160v16h56v64c0,13.232,10.768,24,24,24h248
			c13.232,0,24-10.768,24-24V296C512,282.768,501.232,272,488,272z M40,40c0-13.232,10.768-24,24-24h384c13.232,0,24,10.768,24,24
			v200H40V40z M128,488c0,4.408-3.592,8-8,8H24c-4.408,0-8-3.592-8-8v-8h112V488z M128,464H16V344h112V464z M128,328H16v-16
			c0-4.408,3.592-8,8-8h96c4.408,0,8,3.592,8,8V328z M216,408h-23.064l6.224-56H216V408z M216,296v40h-72v-24
			c0-13.232-10.768-24-24-24H40v-32h432v16H240C226.768,272,216,282.768,216,296z M256,496h-16c-4.408,0-8-3.592-8-8V296
			c0-4.408,3.592-8,8-8h16V496z M456,496H272V288h184V496z M496,488c0,4.408-3.592,8-8,8h-16V288h16c4.408,0,8,3.592,8,8V488z"/>
	</g>
</g>
<g>
	<g>
		<path d="M409.688,185.44L272,122.848v-19.856c13.784-3.56,24-16.104,24-30.992c0-17.648-14.352-32-32-32h-8
			c-17.648,0-32,14.352-32,32v16h16V72c0-8.824,7.176-16,16-16h8c8.824,0,16,7.176,16,16s-7.176,16-16,16c-4.416,0-8,3.584-8,8v32
			c0,3.136,1.832,5.984,4.688,7.28L403.064,200H121.888l129.688-64.84l-7.16-14.312l-129.688,64.84
			c-6.776,3.392-10.16,10.624-8.416,17.992s8,12.32,15.568,12.32h281.176c7.6,0,14.032-5.184,15.64-12.616
			C420.312,195.96,416.608,188.576,409.688,185.44z"/>
	</g>
</g>
<g>
	<g>
		<rect x="336" y="104" width="16" height="16"/>
	</g>
</g>
<g>
	<g>
		<rect x="368" y="104" width="16" height="16"/>
	</g>
</g>
<g>
	<g>
		<rect x="400" y="104" width="16" height="16"/>
	</g>
</g>
<g>
	<g>
		<rect x="112" y="104" width="16" height="16"/>
	</g>
</g>
<g>
	<g>
		<rect x="144" y="104" width="16" height="16"/>
	</g>
</g>
<g>
	<g>
		<rect x="176" y="104" width="16" height="16"/>
	</g>
</g>
<g>
	<g>
		<path d="M425.464,402.008L384,379.296v-4.664c8-3.304,16.568-12.2,16.568-22.632c0-13.232-10.192-24-23.432-24h-8
			c-13.232,0-24,10.768-24,24h16c0-4.408,3.592-8,8-8h8c4.408,0,8,3.592,8,8c0,4.408-4.16,8-8.568,8c-4.416,0-8.568,3.584-8.568,8
			v16c0,2.904,2.144,5.584,4.68,6.992L418.264,416h-98.248l45.008-25.008l-7.776-13.984l-45.008,25c-6.472,3.6-9.576,10.832-7.72,18
			c1.856,7.176,8.088,11.992,15.488,11.992h98.256c7.408,0,13.632-4.816,15.488-11.992
			C435.608,412.84,431.936,405.608,425.464,402.008z"/>
	</g>
</g>
<g>
	<g>
		<path d="M108.8,425.6l-27.752-20.816l4.528-18.128c1.128-4.512,0.136-9.208-2.728-12.88C79.992,370.104,75.672,368,71.016,368
			C62.736,368,56,374.736,56,383.016V392h11.752l-3.512,14.056c-0.784,3.128,0.384,6.416,2.96,8.344L80,424H66.424l2.016-1.344
			l-8.872-13.312l-24,16c-2.936,1.96-4.248,5.6-3.224,8.976C33.36,437.688,36.48,440,40,440h64c3.448,0,6.496-2.2,7.592-5.472
			C112.68,431.256,111.56,427.664,108.8,425.6z"/>
	</g>
</g>
<g>
</g>
<g>
</g>
<g>
</g>
<g>
</g>
<g>
</g>
<g>
</g>
<g>
</g>
<g>
</g>
<g>
</g>
<g>
</g>
<g>
</g>
<g>
</g>
<g>
</g>
<g>
</g>
<g>
</g>
</svg>
