<svg height="512pt" viewBox="0 0 512 512" width="512pt" xmlns="http://www.w3.org/2000/svg"><path d="m469.332031 0h-426.664062c-23.554688.0273438-42.6406252 19.113281-42.667969 42.667969v324.265625c.0273438 23.550781 19.113281 42.636718 42.667969 42.667968h153.597656v34.132813c-23.550781.027344-42.636719 19.113281-42.664063 42.664063v8.535156c.007813 9.421875 7.644532 17.058594 17.066407 17.066406h315.730469c14.132812-.015625 25.585937-11.46875 25.601562-25.601562v-443.730469c-.027344-23.554688-19.113281-42.6406252-42.667969-42.667969zm25.601563 290.132812h-136.535156v-8.53125c.007812-4.710937 3.824218-8.527343 8.535156-8.535156h119.464844c4.710937.007813 8.527343 3.824219 8.535156 8.535156zm-136.535156 17.066407h136.535156v136.535156h-136.535156zm128-51.199219h-119.464844c-14.132813.015625-25.585938 11.46875-25.601563 25.601562v162.132813h-59.730469v-204.800781h213.332032v18.640625c-2.734375-1.011719-5.621094-1.546875-8.535156-1.574219zm8.535156-34.132812h-213.332032v-8.535157c.003907-4.710937 3.820313-8.527343 8.53125-8.53125h196.265626c4.710937.003907 8.527343 3.820313 8.535156 8.53125zm-34.132813-34.132813h-170.667969c-14.132812.015625-25.582031 11.46875-25.597656 25.597656v110.933594h-213.335937v-273.066406h409.601562zm-443.734375 179.199219v-324.265625c.015625-14.132813 11.46875-25.585938 25.601563-25.601563h426.664062c14.132813.015625 25.585938 11.46875 25.601563 25.601563v146.636719c-2.734375-1.011719-5.621094-1.542969-8.535156-1.570313h-8.53125v-136.535156c-.011719-9.421875-7.644532-17.054688-17.066407-17.066407h-409.601562c-9.421875.011719-17.054688 7.644532-17.066407 17.066407v273.066406c.011719 9.421875 7.644532 17.058594 17.066407 17.066406h213.335937v17.066407h-25.601562c-4.714844 0-8.535156 3.820312-8.535156 8.535156 0 4.710937 3.820312 8.53125 8.535156 8.53125h25.601562v17.070312h-221.867187c-14.132813-.015625-25.585938-11.46875-25.601563-25.601562zm196.265625 42.667968h51.203125v34.132813h-51.203125zm-42.664062 76.796876c.015625-14.128907 11.464843-25.582032 25.597656-25.597657h68.269531v25.597657c.027344 2.914062.558594 5.800781 1.570313 8.535156h-95.4375zm119.464843 8.535156c-4.710937-.007813-8.527343-3.824219-8.53125-8.535156v-25.597657h59.730469v25.597657c.03125 2.914062.5625 5.800781 1.574219 8.535156zm196.265626 0h-119.464844c-4.710938-.007813-8.527344-3.824219-8.535156-8.535156v-25.597657h136.535156v25.597657c-.007813 4.710937-3.824219 8.527343-8.535156 8.535156zm0 0"/><path d="m435.199219 469.332031h-17.066407c-4.710937 0-8.53125 3.820313-8.53125 8.535157 0 4.710937 3.820313 8.53125 8.53125 8.53125h17.066407c4.714843 0 8.535156-3.820313 8.535156-8.53125 0-4.714844-3.820313-8.535157-8.535156-8.535157zm0 0"/><path d="m404.601562 341.332031h39.132813c4.710937 0 8.53125-3.820312 8.53125-8.53125 0-4.714843-3.820313-8.535156-8.53125-8.535156h-59.734375c-4.703125.019531-8.515625 3.828125-8.535156 8.535156v59.734375c0 4.710938 3.824218 8.53125 8.535156 8.53125s8.535156-3.820312 8.535156-8.53125v-39.136718l70.765625 70.769531c3.347657 3.230469 8.671875 3.1875 11.960938-.105469 3.292969-3.292969 3.339843-8.613281.105469-11.960938zm0 0"/><path d="m141.53125 153.601562h-39.132812c-4.710938 0-8.53125 3.820313-8.53125 8.53125 0 4.714844 3.820312 8.535157 8.53125 8.535157h59.734374c4.707032-.019531 8.515626-3.828125 8.535157-8.535157v-59.734374c0-4.710938-3.820313-8.53125-8.535157-8.53125-4.710937 0-8.53125 3.820312-8.53125 8.53125v39.132812l-70.769531-70.765625c-3.347656-3.234375-8.667969-3.1875-11.960937.105469-3.292969 3.292968-3.339844 8.613281-.105469 11.960937zm0 0"/></svg>