<svg height="480pt" viewBox="0 0 480 480" width="480pt" xmlns="http://www.w3.org/2000/svg"><path d="m440 0h-256c-4.417969 0-8 3.582031-8 8s3.582031 8 8 8h256c13.253906 0 24 10.746094 24 24v56h-312c-4.417969 0-8 3.582031-8 8s3.582031 8 8 8h73.265625l-10.34375 10.34375c-2.082031 2.007812-2.914063 4.984375-2.183594 7.78125s2.917969 4.980469 5.714844 5.710938c2.796875.734374 5.769531-.101563 7.777344-2.179688l21.65625-21.65625h101.824219l-83.367188 83.367188c-2.078125 2.007812-2.914062 4.984374-2.179688 7.78125.730469 2.796874 2.914063 4.980468 5.710938 5.714843 2.796875.730469 5.773438-.105469 7.78125-2.183593l94.679688-94.679688h91.664062v256h-216c-4.417969 0-8 3.582031-8 8s3.582031 8 8 8h216v56c0 13.253906-10.746094 24-24 24h-194.664062c-4.417969 0-8 3.582031-8 8s3.582031 8 8 8h194.664062c22.082031-.027344 39.972656-17.917969 40-40v-400c-.027344-22.082031-17.917969-39.9726562-40-40zm0 0"/><path d="m432 56c0-13.253906-10.746094-24-24-24s-24 10.746094-24 24 10.746094 24 24 24 24-10.746094 24-24zm-32 0c0-4.417969 3.582031-8 8-8s8 3.582031 8 8-3.582031 8-8 8-8-3.582031-8-8zm0 0"/><path d="m368 56c0-13.253906-10.746094-24-24-24s-24 10.746094-24 24 10.746094 24 24 24 24-10.746094 24-24zm-32 0c0-4.417969 3.582031-8 8-8s8 3.582031 8 8-3.582031 8-8 8-8-3.582031-8-8zm0 0"/><path d="m360 432h-88c-4.417969 0-8 3.582031-8 8s3.582031 8 8 8h88c13.253906 0 24-10.746094 24-24s-10.746094-24-24-24h-88c-4.417969 0-8 3.582031-8 8s3.582031 8 8 8h88c4.417969 0 8 3.582031 8 8s-3.582031 8-8 8zm0 0"/><path d="m424 272h-48c-4.417969 0-8 3.582031-8 8s3.582031 8 8 8h48c4.417969 0 8-3.582031 8-8s-3.582031-8-8-8zm0 0"/><path d="m424 336h-48c-4.417969 0-8 3.582031-8 8s3.582031 8 8 8h48c4.417969 0 8-3.582031 8-8s-3.582031-8-8-8zm0 0"/><path d="m368 176c-4.417969 0-8 3.582031-8 8v48c0 8.835938 7.164062 16 16 16h48c8.835938 0 16-7.164062 16-16v-48c0-4.417969-3.582031-8-8-8s-8 3.582031-8 8v48h-48v-48c0-4.417969-3.582031-8-8-8zm0 0"/><path d="m272 336c-4.417969 0-8 3.582031-8 8s3.582031 8 8 8h48c8.835938 0 16-7.164062 16-16v-48c0-8.835938-7.164062-16-16-16h-48c-4.417969 0-8 3.582031-8 8s3.582031 8 8 8h48v48zm0 0"/><path d="m192 144h-160c-17.671875 0-32 14.328125-32 32v272c0 17.671875 14.328125 32 32 32h160c17.671875 0 32-14.328125 32-32v-272c0-17.671875-14.328125-32-32-32zm16 304c0 8.835938-7.164062 16-16 16h-160c-8.835938 0-16-7.164062-16-16v-32h160c4.417969 0 8-3.582031 8-8s-3.582031-8-8-8h-160v-163.3125l39.023438-39.03125c3.03125-3.140625 2.988281-8.128906-.097657-11.214844-3.085937-3.085937-8.074219-3.128906-11.214843-.097656l-27.710938 27.71875v-38.0625c0-8.835938 7.164062-16 16-16h99.3125l-74.335938 74.34375c-2.082031 2.007812-2.914062 4.984375-2.183593 7.78125.734375 2.796875 2.917969 4.980469 5.714843 5.710938 2.796876.734374 5.773438-.101563 7.78125-2.179688l85.648438-85.65625h38.0625c8.835938 0 16 7.164062 16 16zm0 0"/><path d="m160 184c0 4.417969-3.582031 8-8 8s-8-3.582031-8-8 3.582031-8 8-8 8 3.582031 8 8zm0 0"/><path d="m192 184c0 4.417969-3.582031 8-8 8s-8-3.582031-8-8 3.582031-8 8-8 8 3.582031 8 8zm0 0"/><path d="m128 432h-40c-4.417969 0-8 3.582031-8 8s3.582031 8 8 8h40c4.417969 0 8-3.582031 8-8s-3.582031-8-8-8zm0 0"/><path d="m64 312c-17.671875 0-32 14.328125-32 32s14.328125 32 32 32c4.417969 0 8-3.582031 8-8s-3.582031-8-8-8c-8.835938 0-16-7.164062-16-16s7.164062-16 16-16 16 7.164062 16 16c0 4.417969 3.582031 8 8 8s8-3.582031 8-8c0-17.671875-14.328125-32-32-32zm0 0"/><path d="m152 312c-17.671875 0-32 14.328125-32 32s14.328125 32 32 32 32-14.328125 32-32-14.328125-32-32-32zm0 48c-8.835938 0-16-7.164062-16-16s7.164062-16 16-16 16 7.164062 16 16-7.164062 16-16 16zm0 0"/><path d="m176 252c-4.417969 0-8 3.582031-8 8 0 8.835938-7.164062 16-16 16s-16-7.164062-16-16 7.164062-16 16-16c4.417969 0 8-3.582031 8-8s-3.582031-8-8-8c-17.671875 0-32 14.328125-32 32s14.328125 32 32 32 32-14.328125 32-32c0-4.417969-3.582031-8-8-8zm0 0"/></svg>