<svg height="448pt" viewBox="0 0 448 448" width="448pt" xmlns="http://www.w3.org/2000/svg"><path d="m304 288h16v48h-16zm0 0"/><path d="m397.816406 296.992188c.285156-2.277344-.421875-4.570313-1.941406-6.289063-1.523438-1.71875-3.707031-2.703125-6.003906-2.703125h-13.871094c-4.417969 0-8-3.582031-8-8v-16c0-4.417969-3.582031-8-8-8s-8 3.582031-8 8v16c0 4.417969-3.582031 8-8 8h-8v48h56.9375zm0 0"/><path d="m165.816406 144.992188c.285156-2.277344-.421875-4.570313-1.941406-6.289063-1.523438-1.71875-3.707031-2.703125-6.003906-2.703125h-13.871094c-4.417969 0-8-3.582031-8-8v-16c0-4.417969-3.582031-8-8-8s-8 3.582031-8 8v16c0 4.417969-3.582031 8-8 8h-8v48h56.9375zm0 0"/><path d="m256 384h192v-176h-192zm32-104c0-4.417969 3.582031-8 8-8h32c1.15625.019531 2.296875.292969 3.335938.800781 1.503906-.5 3.078124-.769531 4.664062-.800781v-8c0-13.253906 10.746094-24 24-24s24 10.746094 24 24v8h5.871094c6.886718 0 13.4375 2.957031 17.992187 8.117188 4.558594 5.160156 6.679688 12.027343 5.824219 18.859374l-4.886719 39.007813c-1 8.003906-7.800781 14.007813-15.863281 14.015625h-96.9375c-4.417969 0-8-3.582031-8-8zm0 0"/><path d="m0 48h336v-24c0-13.253906-10.746094-24-24-24h-288c-13.253906 0-24 10.746094-24 24zm152-32h32v16h-32zm0 0"/><path d="m72 136h16v48h-16zm0 0"/><path d="m256 152v40h192v-40c0-4.417969-3.582031-8-8-8h-176c-4.417969 0-8 3.582031-8 8zm48 8h32v16h-32zm-32 0h16v16h-16zm0 0"/><path d="m0 424c0 13.253906 10.746094 24 24 24h217.472656c-.949218-2.5625-1.445312-5.269531-1.472656-8v-40h-240zm160-8h16v16h-16zm0 0"/><path d="m111.199219 308.425781 8.800781 17.6875 8.839844-17.6875c1.355468-2.714843 4.128906-4.425781 7.160156-4.425781h40v-64h-112v64h40c3.046875-.015625 5.839844 1.699219 7.199219 4.425781zm-31.199219-60.425781h80v16h-80zm0 32h80v16h-80zm0 0"/><path d="m0 384h240v-232c0-13.253906 10.746094-24 24-24h72v-64h-336zm56-256c0-4.417969 3.582031-8 8-8h32c1.15625.019531 2.296875.292969 3.335938.800781 1.503906-.5 3.078124-.769531 4.664062-.800781v-8c0-13.253906 10.746094-24 24-24s24 10.746094 24 24v8h5.871094c6.886718 0 13.4375 2.957031 17.992187 8.117188 4.558594 5.160156 6.679688 12.027343 5.824219 18.859374l-4.886719 39.007813c-1 8.003906-7.800781 14.007813-15.863281 14.015625h-96.9375c-4.417969 0-8-3.582031-8-8zm-8 112c0-8.835938 7.164062-16 16-16h112c8.835938 0 16 7.164062 16 16v64c0 8.835938-7.164062 16-16 16h-35.054688l-13.746093 27.574219c-1.351563 2.71875-4.125 4.433593-7.160157 4.433593-3.03125 0-5.804687-1.714843-7.160156-4.433593l-13.824218-27.574219h-35.054688c-8.835938 0-16-7.164062-16-16zm0 0"/><path d="m440 448c4.417969 0 8-3.582031 8-8v-40h-192v40c0 4.417969 3.582031 8 8 8zm-96-32h16v16h-16zm0 0"/></svg>